<svg version="1.1" id="Layer_1" xmlns="http://www.w3.org/2000/svg" x="0" y="0" viewBox="0 0 540 128" xml:space="preserve"><style>.st0{fill:#1a1a18}</style><path class="st0" d="M27.2 60.6c-.1.5-.7 2.2-1.7 5.1-.3.8-.7 2.3-1.4 4.6-.4 1.2-.9 2.7-1.4 4.5l-.2.7h-3.2c-.1-.3-.1-.5-.2-.7-.1-.6-.6-2.3-1.5-5.2-.9-2.9-1.4-4.7-1.6-5.4-.1-.2-.2-.5-.3-.8l-.3.9-1.7 5.5-1.6 5-.1.8H8.8l-.2-1-1.2-4.5-2.9-9.4C3.8 58.5 3 56.5 2 54.5c-.4-.4-.9-.6-1.4-.7v-1.7c1.7.1 2.4.1 4.3.1s2.5 0 4.2-.1v1.7h-.3c-1.1 0-1.5.3-1.5 1.1 0 .4 0 .7.1 1.1.4 1.7 1.1 3.7 1.7 6.1 1 3.4 1.6 5.5 1.9 6.4l.2.6.2.7.3-.9 2.6-8.4.2-.6c-.1-.3-.2-.5-.2-.6-.1-.3-.4-1-.7-2-.4-1-.5-1.4-.6-1.7-.5-1.2-.9-1.6-1.9-1.7v-1.8c1.7.1 2.4.1 4.2.1s2.5 0 4.3-.1v1.7h-.2c-1.2 0-1.8.4-1.8 1 .2 1.5.6 3 1.1 4.5l1.8 5.8 1.3 3.8.2.8c.1-.2.2-.5.3-.7.5-1.4 1.3-4.1 2-6.4.5-1.6.8-2.6.9-3 .5-1.4.9-2.9 1.1-4.4 0-.7-.5-1.1-1.7-1.2h-.5v-1.7c1.7.1 2.3.1 3.5.1s1.8 0 3.4-.1V54c-1.8.3-2.5 1.6-3.8 6.6zM50.8 75.5c-1.1 0-2.3 0-3.5.1h-1.1v-1.7h.2c1.4 0 1.9-.4 1.9-1 0-.4-.1-.8-.3-1.2l-.6-1.7-.4-1.3-.1-.4h-7.6c0 .1-.1.3-.1.4-.2.4-.3.7-.4 1.1-.4 1-.7 2-.9 3.1 0 .7.7 1 1.9 1v1.7c-1.6-.1-2.2-.1-3.2-.1-.6 0-1.5 0-2.7.1h-.7v-1.7c.4 0 .7-.1 1-.2.5-.2.9-1.1 1.7-3.1l1.6-4c.4-.8 1-2.5 1.8-5 1.6-4.5 2.6-7.3 3-8.6l.3-1H46c.6 2.1.9 2.8 1.8 5.4l1.6 4.5c.8 2.4 1.4 3.9 1.6 4.5.9 2.3 1.4 3.6 1.5 3.9.8 2.6 1.4 3.3 2.7 3.4v1.7c-2.1.1-2.8.1-4.4.1zm-7.6-18L40 66.2h6.2l-3-8.7zM77.1 75.6l-5.5-9.5c-.7-1.3-1-1.4-2.5-1.5v1.3l.1 4c0 2.3.1 3 .3 3.4.2.4.9.6 2.1.7h.6v1.7c-1.7-.1-2.3-.1-4.8-.1-3 0-3.7 0-5.8.1V74h.7c1.3-.1 1.9-.3 2.1-.7.2-.4.3-1.3.3-5.6v-6-2c-.1-1.7 0-2.6 0-2.8V56c.1-1.5-.4-1.9-2.5-2h-.6v-1.7h1c1.2 0 2.4.1 3.5.1 1.3 0 2.8 0 4.3-.1s2.6-.1 3.5-.1c4.3 0 6.7 2.1 6.7 5.9 0 3.2-1.9 5.3-5.4 6.1l.8 1.3 1.9 3.2c2.4 4 2.7 4.3 3.6 5 .4.3 1 .5 1.5.5v1.7l-5.9-.3zM72.3 54l-2.5.1h-.3c-.2 0-.4.2-.4.5v.1l.1 1.5c0 .1 0 .9-.1 2.4v4.3c.6.1 1.3.1 1.9.1 3 0 5.1-1.9 5.1-4.7.1-2.5-1.5-4.3-3.8-4.3zM108.5 75.5c-2.5 0-3.2 0-5.3.1v-1.7h.6c1.2-.1 1.8-.3 2-.7.2-.4.3-1.3.3-5.6v-3h-8.8v1.3c0 2.7.1 4.9.2 6.5.1 1.1.5 1.4 2.3 1.5h.6v1.7c-2-.1-2.7-.1-5.1-.1s-3.3 0-5.3.1v-1.7h.6c1.2-.1 1.8-.3 2-.7.2-.4.2-1.4.2-5.6v-6-2c-.1-1.7 0-2.7 0-2.9v-1c.1-1.5-.4-1.9-2.4-2h-.5v-1.8c2 .1 2.7.1 5.1.1 2.3 0 3.2 0 5.3-.1v1.7h-.4c-1.4.1-1.7.2-2.1 1.1-.5.8-.4.9-.4 2.5v5h8.8v-2.7c0-1.7-.1-2.6-.1-2.8v-1c.1-1.5-.4-1.9-2.4-2h-.5V52c2 .1 2.7.1 5.1.1s3.2 0 5.3-.1v1.7h-.4c-1.4.1-1.7.2-2.1 1.1-.5.8-.4.9-.4 2.5V65.9c0 2.7 0 4.8.1 6.5.1 1.1.5 1.4 2.3 1.5h.6v1.7c-2-.1-2.8-.1-5.2-.1zM137.8 75.5c-1.1 0-2.3 0-3.5.1h-1.1v-1.7h.2c1.4 0 1.9-.4 1.9-1 0-.4-.1-.8-.2-1.2l-.6-1.7-.5-1.3-.1-.4h-7.6c0 .2-.1.3-.1.4-.2.4-.3.7-.4 1.1-.5 1-.8 2-.9 3.1 0 .7.7 1 1.9 1v1.7c-1.6-.1-2.2-.1-3.2-.1-.6 0-1.5 0-2.7.1h-.7v-1.7c.4 0 .7-.1 1-.2.5-.2.9-1.1 1.7-3.1l1.5-4c.4-.8 1-2.5 1.8-5 1.6-4.5 2.6-7.3 3-8.6l.3-1h3.3c.6 2.1.9 2.8 1.8 5.4l1.6 4.5c.8 2.4 1.4 3.9 1.6 4.5.9 2.3 1.4 3.6 1.5 3.9.8 2.6 1.4 3.3 2.7 3.4v1.7c-1.8.1-2.6.1-4.2.1zm-7.6-18l-3.1 8.7h6.2l-3.1-8.7zM173.4 75.5c-2 0-2.9 0-5.1.1v-1.7h.5c1.8-.1 2.1-.4 2.1-2.1 0-1.2-.1-3.7-.3-7.9l-.2-4.4c0-1.1-.1-1.5-.2-2.7-1.3 3.4-1.7 4.7-3.1 9l-2.7 8.6-.5 1.3h-3.4l-.4-1.1c-.3-.9-1.2-3.9-2.8-9-1.3-4.1-1.7-5.4-2.9-8.9l-.1 1.9-.3 5.4c-.2 3.3-.3 6-.3 7.9 0 1.3.4 1.7 1.9 1.8.1 0 .3 0 .5.1v1.7h-.8c-1.1 0-2-.1-2.8-.1-.8 0-1.7 0-3.1.1h-.7v-1.7c.3 0 .5 0 .8-.1.4 0 .7-.1 1.1-.3.4-.2.7-.9.7-1.8l.1-2.3.4-6c.2-3.6.4-7.4.4-8.4 0-.8-.4-1-1.8-1.1-.2 0-.5-.1-.9-.1V52h8.1l.4 1.2c2.3 7.6 3.9 12.7 4.9 15.2.1.3.3.8.5 1.4.2-.7.5-1.2.6-1.6.5-1.2 1.4-3.9 2.7-7.9l2.3-7.1.4-1.3h8v1.7h-.6c-1.7.1-2.1.4-2.1 1.3 0 1.8.1 5.2.4 10.3.1 2.7.3 4.4.4 5.3l.1 1.5c.1 1.3.4 1.4 2.1 1.6.1 0 .3 0 .5.1v1.7c-2 .1-2.8.1-4.8.1zM209.9 75.5c-2 0-2.9 0-5.1.1v-1.7h.5c1.8-.1 2.1-.4 2.1-2.1 0-1.2-.1-3.7-.3-7.9l-.2-4.4c0-1.1-.1-1.5-.2-2.7-1.3 3.4-1.7 4.7-3.1 9l-2.7 8.6-.5 1.3H197l-.4-1.1c-.3-.9-1.2-3.9-2.8-9-1.3-4.1-1.7-5.4-2.9-8.9l-.1 1.9-.3 5.4c-.2 3.3-.3 6-.3 7.9 0 1.3.4 1.7 1.9 1.8.1 0 .3 0 .5.1v1.7h-.6c-1.1 0-2-.1-2.8-.1s-1.7 0-3.1.1h-.7v-1.7c.3 0 .5 0 .8-.1.4 0 .7-.1 1.1-.3.4-.2.7-.9.7-1.8l.1-2.3.4-6c.2-3.6.4-7.4.4-8.4 0-.8-.4-1-1.8-1.1-.2 0-.5-.1-.9-.1V52h8.1l.4 1.2c2.3 7.6 3.9 12.7 4.9 15.2.1.3.3.8.5 1.4.2-.7.5-1.2.6-1.6.5-1.2 1.4-3.9 2.7-7.9l2.3-7.1.4-1.3h8v1.7h-.6c-1.7.1-2.1.4-2.1 1.3 0 1.8.2 5.2.4 10.3.1 2.7.3 4.4.4 5.3l.1 1.5c.1 1.3.4 1.4 2.1 1.6.1 0 .3 0 .5.1v1.7c-2.2.1-3 .1-5 .1zM240.3 75.6h-18.5v-1.7h.7c1.3-.1 1.9-.3 2.1-.7.2-.4.3-1.4.3-5.6v-6-2c-.1-1.7 0-2.6 0-2.8v-.9c.1-1.5-.4-1.9-2.5-2h-.6v-1.7h18.6v6.4h-2.9l-.1-.6-.4-1.6c-.5-1.9-.6-2-1.7-2h-2.8c-.8 0-1.5 0-3.2.1 0 1.5-.1 2.3-.1 3.5v4.1l1.6-.1h6.3v2.7H229v7c0 1.8.3 1.9 3.2 1.9 3.2 0 3.5 0 3.9-.4.3-.4.6-1.1 1.7-4.4l3 .5-.5 6.3zM263.4 75.6l-5.5-9.5c-.7-1.3-1-1.4-2.5-1.5v1.3l.1 4c0 2.3.1 3 .3 3.4.2.4.9.6 2.1.7h.6v1.7c-1.7-.1-2.3-.1-4.8-.1-3 0-3.7 0-5.8.1V74h.7c1.3-.1 1.9-.3 2.1-.7.2-.4.3-1.3.3-5.6v-6-2c-.1-1.7 0-2.6 0-2.8V56c.1-1.5-.4-1.9-2.5-2h-.6v-1.7h1.1c1.2 0 2.4.1 3.5.1 1.3 0 2.8 0 4.3-.1s2.6-.1 3.5-.1c4.3 0 6.7 2.1 6.7 5.9 0 3.2-1.9 5.3-5.4 6.1l.8 1.3 1.9 3.1c2.4 4 2.7 4.3 3.6 5 .4.3 1 .5 1.5.5v1.7h-6zM258.6 54l-2.5.1h-.3c-.2 0-.4.2-.4.5v.1l.1 1.5c0 .1 0 .9-.1 2.4v4.3c.6.1 1.3.1 1.9.1 3 0 5.1-1.9 5.1-4.7.1-2.5-1.5-4.3-3.8-4.3zM306.7 73.1c-1.3 1.9-3.9 3-7.1 3-6.4 0-9.6-3.9-9.6-11.8 0-8.6 3.5-12.8 10.6-12.8 2.3-.1 4.5.4 6.6 1.3v5.6h-2.9c-.4-2.4-.7-3.6-1.1-4.1s-1.5-.7-2.9-.7c-1.7-.1-3.4.8-4.3 2.3-.9 1.7-1.3 4.3-1.3 8.3 0 3.8.3 5.9 1.2 7.5.9 1.5 2.6 2.4 4.3 2.3 3.1 0 5.2-2 5.6-5.4l2.3.2c0 1.6-.5 3.1-1.4 4.3zM325.6 76.1c-2.1.1-4.1-.3-6-1.2-2.9-1.7-4.4-5.4-4.4-10.9 0-8.6 3.3-12.5 10.7-12.5 4.2 0 6.8 1.2 8.4 4.1 1.3 2.6 1.9 5.4 1.8 8.3.1 8.4-3.2 12.2-10.5 12.2zm4.5-20.5c-.7-1.3-2.3-1.9-4.5-1.9-3.9 0-5.6 2.8-5.6 9.3 0 8.6 1.4 11.2 5.9 11.2 4.1 0 5.6-2.7 5.6-9.8 0-4.4-.5-7.2-1.4-8.8zM367.1 75.5c-2 0-2.9 0-5.1.1v-1.7h.5c1.8-.1 2.1-.4 2.1-2.1 0-1.2-.1-3.7-.3-7.9l-.2-4.4c0-1.1-.1-1.5-.2-2.7-1.3 3.4-1.7 4.7-3.1 9l-2.7 8.6-.5 1.3h-3.4l-.4-1.1c-.3-.9-1.2-3.9-2.8-9-1.3-4.1-1.7-5.4-2.9-8.9l-.1 1.9-.3 5.4c-.2 3.3-.3 6-.3 7.9 0 1.3.4 1.7 1.9 1.8.1 0 .3 0 .5.1v1.7h-.8c-1.1 0-2-.1-2.8-.1s-1.7 0-3.1.1h-.7v-1.7c.3 0 .5 0 .8-.1.4 0 .7-.1 1.1-.3.4-.2.7-.9.7-1.8l.1-2.3.4-6c.2-3.6.4-7.4.4-8.4 0-.8-.4-1-1.8-1.1-.2 0-.5-.1-1-.1V52h8.1l.4 1.2c2.3 7.6 3.9 12.7 4.9 15.2.1.3.3.8.5 1.4.2-.7.5-1.2.6-1.6.5-1.2 1.4-3.9 2.7-7.9l2.3-7.1.4-1.3h8v1.7h-.6c-1.7.1-2.1.4-2.1 1.3 0 1.8.2 5.2.4 10.3.1 2.7.3 4.4.4 5.3l.1 1.5c.1 1.3.4 1.4 2.1 1.6.1 0 .3 0 .5.1v1.7c-1.9.1-2.7.1-4.7.1zM403.7 75.5c-2 0-2.9 0-5.2.1v-1.7h.5c1.8-.1 2.1-.4 2.1-2.1 0-1.2-.1-3.7-.3-7.9l-.2-4.4c0-1.1-.1-1.5-.2-2.7-1.3 3.4-1.7 4.7-3.1 9l-2.7 8.6-.5 1.3h-3.4l-.4-1.1c-.3-.9-1.2-3.9-2.8-9-1.3-4.1-1.7-5.4-2.9-8.9l-.1 1.9-.3 5.4c-.2 3.3-.3 6-.3 7.9 0 1.3.4 1.7 1.9 1.8.1 0 .3 0 .5.1v1.7h-.8c-1.1 0-2-.1-2.8-.1-.8 0-1.7 0-3.1.1h-.6v-1.7c.3 0 .5 0 .8-.1.4 0 .7-.1 1.1-.3.4-.2.7-.9.7-1.8l.1-2.3.4-6c.2-3.6.4-7.4.4-8.4 0-.8-.4-1-1.8-1.1-.2 0-.5-.1-.9-.1V52h8.1l.4 1.2c2.3 7.6 3.9 12.7 4.9 15.2.1.3.3.8.5 1.4.2-.7.5-1.2.6-1.6.5-1.2 1.4-3.9 2.7-7.9l2.3-7.1.4-1.3h8v1.7h-.6c-1.7.1-2.1.4-2.1 1.3 0 1.8.2 5.2.4 10.3.1 2.7.3 4.4.4 5.3l.1 1.5c.1 1.3.4 1.4 2.1 1.6.1 0 .3 0 .5.1v1.7c-2.1.1-2.8.1-4.8.1zM437.1 53.8c-1.1.1-1.6.3-1.9 1.1-.1.3-.3.7-.3 1.1-.1 1.1-.2 2.2-.1 3.3v.6c0 2.4.1 4.9.1 6.4v2.1c.1 1.5-.2 3-.8 4.4-.9 1.9-4.1 3.2-7.6 3.2-1.9.1-3.9-.3-5.6-1.2-.8-.5-1.5-1.1-2-2-.6-1.1-.8-2.3-.8-4.8v-9.2-3.3c0-1-.7-1.5-2.1-1.7-.2 0-.4 0-.8-.1V52h.9c1.5.1 3 .1 4.4.1s2.9-.1 4.2-.1h.9v1.7h-.6c-2 .1-2.3.5-2.3 2.9V66c0 3.9.2 5.1.8 6.2.6 1.1 2.1 1.8 4.2 1.8 1.6.2 3.2-.6 4-1.9.8-1.3.9-2.7.9-8.9v-3-2.7c.1-1 0-2-.4-3-.3-.6-.7-.7-2.1-.8h-.5V52c1.6.1 2.2.1 4.1.1 1.8 0 2.4 0 4-.1v1.7c-.4.1-.6.1-.6.1zM467.7 53.8c-1.9 0-2.3.3-2.4 1.6l-.1 2.7v17.5h-4.1c-1.6-2.7-2-3.3-5.4-8.4l-5-7.5-1-1.4v10.2l.1 3.2c.1 1.7.4 1.9 2.8 2.1v1.7c-1.8-.1-2.5-.1-4.1-.1-1.6 0-2.3 0-3.9.1v-1.6h.5c1.2-.1 1.8-.3 2-.7.1-.2.1-.5.1-.7.1-2.3.2-4.5.2-10.5v-4.7l-.1-1.9c-.1-1.2-.4-1.5-2.2-1.6h-.5V52h6.7l1.1 1.6 5.2 8.1 4.4 6.7.9 1.3v-9V59c-.1-1.7-.1-2.8-.1-3.1 0-.9-.1-1.3-.5-1.6-.7-.4-1.5-.6-2.3-.6V52c1.7.1 2.4.1 3.7.1 1 0 2.1 0 3.2-.1h1.1v1.7h-.3zM480.4 75.5c-2.5 0-3.3 0-5.3.1v-1.7h.6c1.2-.1 1.8-.3 2-.7.2-.4.2-1.4.2-5.6v-6-2c-.1-1.7 0-2.6 0-2.8v-1c.1-1.5-.4-1.9-2.4-2h-.5V52c2 .1 2.8.1 5.1.1s3.2 0 5.3-.1v1.7h-.4c-1.4.1-1.7.2-2.1 1.1-.4.8-.5 1.6-.4 2.5v8.6c0 2.7.1 4.9.2 6.5.1 1.1.5 1.4 2.3 1.5h.6v1.7c-2-.1-2.7-.1-5.2-.1zM509.5 58.7c-.1-.2-.2-.4-.2-.6 0-.2-.1-.2-.1-.3-1.3-3.3-1.4-3.5-3.1-3.5h-1.5v7.4c0 1.9.1 3.1.1 3.7s0 1.9-.1 4v1.4c0 2.3.5 2.9 2.6 2.9h.7v1.9c-2.1-.1-2.9-.1-5.3-.1s-3.3 0-5.6.1v-1.9h.8c1.2 0 1.6-.2 1.9-.8.4-.9.5-1.7.5-5V54.3h-.5c-.6 0-1.3 0-1.9.1-.9.2-1.3.8-2.3 3.4-.1.3-.2.6-.4.8l-3-.5.9-6.1h18.9l.9 6.1-3.3.6zM536.9 55.2c-.5.8-.9 1.6-1.3 2.4-1.1 2-2.9 5.6-3.9 7.8l-.6 1.2v4.3c-.1.7 0 1.5.2 2.2.2.4.8.6 2.1.7h.6v1.7c-1.9-.1-2.6-.1-5.3-.1-2.7 0-3.4 0-5.3.1v-1.7h.5c2.4-.1 2.6-.4 2.6-4.1v-.5l-.1-2v-.7c-.9-1.8-1.1-2.1-2.7-5.4l-2.1-4.1c-.4-1.1-1-2.1-1.8-2.9-.5-.3-1.1-.4-1.6-.4V52c1.6.1 2.1.1 4.3.1 2.5 0 3.2 0 5.1-.1v1.7h-.3c-1.1 0-1.6.3-1.6.8.1.7.3 1.4.7 2l2.6 5.4.9 1.8.8-1.6 2.8-5.6c.4-.6.6-1.3.7-2 0-.4-.4-.6-1-.7H532.4V52c1.5.1 2.1.1 3.6.1 1.1 0 2.1 0 3.2-.1v1.7c-1.3.1-1.6.3-2.3 1.5zM305.5 21.5l.1-.3-.2.1c.1.1.1.2.1.2zM240.9 43.1c0 .1-.1.1-.1.2h.2c-.1.1-.1 0-.2 0s.1-.2.1-.2z"/><path class="st0" d="M317.9 41c-1-.1-2-.3-3-.6l.9-1.3 1.3.7 3.2-7.1-3.2 4.1-.9-1-3.6 5.3c-2.8.3-5.6.3-8.4 0-2.6-.2-4.9-.7-7.4-1.1-.2.1-.6.1-.3.4-.4-.3-.1 0-.4-.3.1 0 .3-.1.3-.2l-1-.2h-.5c-.1.3.4.3.5.4-.2.2-.1.3-.1.4 0 .1 0 .3-.1.4-.1-.1-.3-.2-.5-.2l-.4.3.2.1c0 .1-.2 0-.2-.1h-.3c-.1.1-.2.1-.3.3-.1.1-.1-.1-.2-.2-.1 0-.2.1-.2.1 0 .1 0 .1-.1.2 0 0 0 .1 0 0l-.1-.1c0-.1.1-.1.1-.1 0-.1.1-.2.2-.2.1-.1.3-.1.4-.1.1 0 .2-.1.2-.2-.4 0 .1-.4-.3-.2.1-.2 0-.3.2-.5.2.2.1.4.1.7.1-.1.3-.2.4-.2l.1-.1.5-.2c-.2-.2-.4-.5-.5-.8-1.9-.3-3.8-.5-5.8-.5-.4-1.7-1.1-3.4-2-5l5.3-4.7 1.5 3.4 9.8-9.3-.1-.1c-.1-.1-.2 0-.2 0-.5-.3-.7.8-1.4.5l-1.4 1v.3c-.1 0-.2 0-.2.1-2.4 1.7-4.5 3.2-4.6 3.2-.3-.8-.6-1.5-.8-2.3l-.1-.1-.1.3c-.1-.1.1-.2-.1-.3-.1.2-.4.3-.5.6 0 .1.1.1.2.1h.4-.1s-.1.1 0 0h-.2v.1h.1c-.1.1-.1 0-.1 0-.2 0-.1.1-.1.2-.4-.3-.4 0-.8-.4.5.5-.6.2-.2.7-.3-.4-.1 0-.4-.3.3 0 .4-.5.6-.7l-.3-.2c0-.5.5 0 .6-.2 0 .1-.3.1-.3 0l.2.3c.3 0 .5-.3.6-.6-.2 0 .2-.3-.1-.5l-.4.2h.1c0 .1-.1.1-.3.1 0 0-.1.1-.2.1 0-.1.1-.1.2-.1l-1.5.9s0 .1.1.1c0 0-.1 0-.1-.1l-.3.2c.1.1.4.2.4.2-.1.1-.2.3-.1.4 0 .1 0 .2-.1.3-.2-.1-.3-.2-.4-.2l-.4.3c.1 0 .1 0 .2.1 0 .1-.1 0-.2-.1h-.3c-.1 0-.2.1-.3.2-.1.1-.1-.1-.1-.2-.1 0-.1.1-.2.1 0 .1 0 .1-.1.2l-.1-.1c0-.1.1-.1.1-.1 0-.1.1-.2.2-.2s.3-.1.4-.1c.1 0 .1-.1.2-.1-.4 0 .1-.4-.3-.2 0-.1.1-.1.1-.2l-3.3 2v.1h-.1c.1.1-.1 0 0 0l-2.7 1.7-.5-.7v-.1l-1.4-1.7-1.2-.8-.9-.2s-.3-.7 0-.8c.3-.1.5-.1.8-.2l2.5-7 2.8 2.5 4.7-13.3-5.3 8.8-2.5-2.3-5.7 8.8s0 1.4-.6 1.9-.6-1.4-.6-1.4l-1.8-.4c.2.4.4.8.7 1.1.4.5.8 1.1 1.1 1.8 0 0-.6-.4-.6-.7s-1.1-.8-1.3-.7c-.2 0 0 .7 0 .7l-1.6-.3s1-.9.9-.9c-.2-.1-.4-.1-.7-.3-.3-.1.1-.9.1-.9s.7-.4.5-.4c-.3 0-.7-.4-.7-.4L269.3.3s-2.4 14.9-3.4 22.4c-3.8.6-3.3 1.4-3.5 1.6-.3.3 0 .6 0 .6.2.2.4.5.3.9-.1.4-1 .2-1 .2-.3-.2-.4-.6-.3-.9 0-.4-.1-.9-.2-1.3l-3.6-6.1-.1-.1c-.1 0-.2 0-.1-.1l.1.1-.9-1.5c-.1 0-.3-.1-.4-.1.3 0 .1-.2-.2-.3.1 0 .2.1.2.1l-.1-.2c.1 0 .2 0 .2.1l-.3-.7-2.7 2.6-5.5-10.3L253 22l2.9-2.6s1.3 4.1 2.6 7.3c-1.5 1-2.7 2.4-3.7 4 0 0-9.1-5.8-9.3-5.9-.1 0-.7 1.1-.7 3.6-.5.2-11-6.9-11-6.9l12.5 11 1-3.2c1.7 1.7 3.6 3.3 5.7 4.7-1.1 1.5-1.8 3.2-2.1 5.1-2.6 0-5.3.4-7.8 1 0 .1-.1.2-.3.1.1 0 .1 0 .1-.1l-.6.1c-.3 0-.5.1-.8.2 0 .1-.1.2-.2.2v0c0-.1.1-.1.1-.2l-.5.1h-.1c0 .4-.1.3-.2.5.1-.1-.2-.1-.1-.3.1.1.1 0 .2-.1l-.6.2c.1 0 .1.1.2.2-.3.7-.5 1.4-.6 2.1l.2-.2v.1c.2-.6.4-1.3.6-2 .2.1 0 .8 0 1 .3.1.4-1 .7-.8l-.1-.2c.1 0 .4.2.4 0 0 .3 0 .5-.2.8l.2-.3c.1-.2.3-.3.3-.3-.1.2-.2.5-.3.7.1 0 .4-.6.4-.7.1.3.1.5.1.8.1-.2.2-.4.2-.7.2-.1.3 0 .3.1s.1.2.3-.1l-.3.4-.3.4.2-.6c-.4.1-.7 1.2-.9 1.5.2-.2.4-.5.6-.7.2-.2.4-.4.7-.6-.1.1-.4.5-.4.6.3-.4.9-.1 1.1.1-.2.1-.1.4.1.3-.1.1-.1 0-.1 0-.1.4.7-.4.5 0-.1-.2-.3 0-.4.2.2 0 .3.3.7-.2 0 .2.1.2-.1.4h.5c-.1 0-.1.1-.2.2h9.6c-.2-4.1 1.1-8.2 3.7-11.4 3.8-5.8 10.4-6 12.4-6 2.1 0 6.2.1 11.6 4.8s4.5 12.4 4.5 12.4h53.2l1.1-.5s1-.7.6-.7-.4-.7-.4-.7l1.6-.7c-.3.1-23.6.4-24.5.5zm-23.2-14.6c.3-.3 0 .6 0 .2 0 0-.1-.3 0-.2zm-1 .6l-.2.1c.1 0 0-.1 0-.2 0 .1.1.1.2.1zm-1.1.4l-.1-.2.1.1v.1zm.4-1.2c-.1.2-.2.3-.3 0 .1-.1.2-.2.3 0zm-.4 0c-.1 0-.1.2-.1 0h.1zm-.3 1l-.1.4v-.3l.1-.1zm-1.3 1c0-.1.1-.2.1-.3 0 .2 0 .3-.1.3 0 .2-.1.3-.3.4.1-.1-.2-.2-.2-.4.3.1.4.1.5 0zm-.9.3v-.1l-.1.4.1-.3zm-.5-.4h.3-.3l.3.2c-.1 0-.2-.1-.3-.2zm-.3.1l-.2.2c.1.1.2.2.2.3-.1-.1-.2-.1-.3-.2l.1-.2s0-.1.2-.1zm-1.2.7c.2.1.2.2.1.3 0-.1-.1-.1-.2-.1l.1-.2zm-45.4 12.5v-.2c.1-.1.1.1.2.1l-.2.1zm.7 0c-.1-.4-.6-.1-.4-.5.1.2.4.2.7.3l-.3.2zm.5.1h-.2.2zm1.2.4s.1-.2.2-.2c0 .1-.1.3-.2.2zm6.9-.2c-.4 0-.8-.3-.8-.8 0-.4.3-.8.8-.8.4 0 .8.3.8.8s-.4.8-.8.8zm2.6-7.8c-.4 0-.8-.3-.8-.8 0-.4.3-.8.8-.8.4 0 .8.3.8.8-.1.5-.4.8-.8.8zm2.9-16l.3.2c-.1-.1-.2-.1-.3-.2zm0 .4c-.2-.1-.3-.1-.5-.2.2 0 .4.1.5.2zm-.4-1l.1.2c-.1 0-.3-.1-.2-.1h-.1l.2-.1zm-.3-.5h-.1.1zm-.3 1.1c.1 0 .1.1.2 0s-.1-.1-.1-.1c.2 0 .4 0 .6.1h-.5c-.1 0-.2 0-.3-.1h-.1c.1 0 .2.1.2.1zm0 1.2l-.1-.1.1.1c.2-.1 0-.1 0 0zm.3.6l-.1-.1.1.1zm-.1-.3h.1c.2-.1-.3-.4.2-.3-.1.1 0 .3.1.4l-.4-.1zm.5-1l.3.3-.3-.3zm0 2.1c-.1 0 .2 0 .3.1 0 .1-.3-.1-.3-.1zm.2-1.7c.1.1.2.1.3 0 .1.2-.2.2-.3 0zm.3-.1c-.3-.1-.1 0 0 0l-.1-.1.1.1.1.1c0-.1-.2-.1-.1-.1zm.2.4c-.1-.2-.1-.1 0 0 0-.1 0 0 0 0 .2 0 .1 0 0 0zm.1-.2l-.1-.1c.2 0 .3 0 .3.1.1.1 0 0-.2 0zm2.5 8.8c-.4 0-.8-.3-.8-.8 0-.4.3-.8.8-.8.4 0 .8.3.8.8-.1.5-.4.8-.8.8zm9.4-2.9c-.4 0-.8-.3-.8-.8s.3-.8.8-.8c.4 0 .8.3.8.8-.1.5-.4.8-.8.8zm9.3 2.9c-.4 0-.8-.3-.8-.8 0-.4.3-.8.8-.8.4 0 .8.3.8.8s-.4.8-.8.8zm10.1 13.9l.2.1c.1.1-.2 0-.3.1l.1-.2zm-3.9-7.7c-.4 0-.8-.3-.8-.8 0-.4.3-.8.8-.8.4 0 .8.3.8.8-.1.4-.4.8-.8.8zm2.8 8.9v-.1l.1-.2-.1.3zm-.5-1.1c-.4 0-.8-.3-.8-.8 0-.4.3-.8.8-.8.4 0 .8.3.8.8-.1.5-.4.8-.8.8zm1.1 1v-.4l.1.1c.3 0 .5-.6.8-.2-.4 0-.7.3-.9.5zm1.8.1c.2-.2 0-.2.1 0h-.1c.1.1-.2.1 0 0zm.1-.7c-.1.2 0 .2.2.3-.4.2-.6-.1-.2-.3zm.4-.5l-.2.5.2-.5zm0 .6c0-.3 0-.1 0 0l.2-.2c0 .2 0 .2-.2.2l-.1.1c0-.1 0-.2.1-.1zm.2.5c0-.1-.2 0-.2-.1l.1-.2c.1.1.2.2.1.3zm.4-2.3s0 .2.1.2.1-.1.1-.2c.2.1.3.3.5.5 0 0-.3-.3-.5-.3-.3 0-.2-.2-.2-.2zm0 1.1c.1-.3-.1-.3-.1-.5.4.1.2.4.1.5zm.4.5l.1-.2c-.1-.1 0-.2.2-.2l-.2.2c.1.1.2.2.2.3 0-.1-.2-.1-.3-.1zm.4-.8l-.2.3c0-.1 0-.2-.1-.2l.3-.1zm.5.4c-.1 0-.2-.1-.3-.2h.1l.2-.1-.2.1.2.2zm.3-1.4l-.1-.1.3.1-.3.3c-.1-.1-.2-.2.1-.3zm0 1.8v-.4.4zm1-.6c0 .2-.1.3-.3.5.1-.1-.2-.2-.2-.4.3.1.4 0 .5-.1 0-.1.1-.2.1-.3 0 .2-.1.3-.1.3zm1.2-.6l-.1-.3.1-.2v.5zm.5-.3l-.1-.2h.2l-.1.2zm.9-.4c.1 0 0-.1 0-.2h.2l-.2.2zm16.8 2.1c-.3 0-.5-.2-.5-.5s.2-.5.5-.5.5.2.5.5-.2.5-.5.5zM294.4 40.8z"/><path class="st0" d="M294.4 40.7s0 .1 0 0c0 .2.2 0 0 0zM243.6 43.3h.1v-.2s-.1.1-.1.2zM303.9 22.8c0 .1-.1.2-.1.2l.1.1.1-.1c0-.1-.1-.1-.1-.2zM301.9 23.8l-.1.1c.1 0 .1 0 .1-.1zM304.9 22.1zM291.6 27.3l.4-.1c-.2-.2-.3-.4-.4-.6l-.5.3c.1.2 0 .4 0 .6.2-.1.3-.1.5-.2zM239.5 40.9l-.2.2v-.2l-.3.1-.1.2c0 .1.3 0 .3-.2v.9c.2.1.5-.5.5-1h-.2zM238.2 42.5c.1.2.3.4.4.6 0-.7-.1-1.4-.2-2l-.4.1.1.1c.1.3-.1.8.1 1.2zm.1-.4v.6-.6zM294.4 40.9zM303.8 23.2c-.1 0-.2.1-.3.1l.1.1.2-.2zM241.2 43.3v-.1.1zM238.5 41.1c.1.2.2 0 .3-.1l-.3.1zM233.1 43.2s.1.1 0 .1h.2v-.2c.2.2.3 0 .2-.3v.2l.1-.2v.4h.3l-.1-.3h.1v.2h.8c.1-.1.1-.3 0-.4l-.1.1v-.4c.3.2.8-.1 1 .2-.1-.1-.2 0-.2.1l.2.1c-.1 0-.2-.3-.4-.1v.4h.5c0-.1.1-.2.2-.1.1 0 0 0 0 .1h.2c.2-.4.2-.8.2-1.3-.1.2-.3.5-.3.1.1-.2.2-.3.2-.5.2.4-.2.2 0 .5.1 0 .1-.2.1-.2 0 .2.1.3.2.4.2 0 .4.1.7.1 0 .1.1.2.1.3.1-.3.2-.7.1-1.1.2 0 .2.2.3 0-.2-.4 0 0 0-.4.1-.1.1.2.2.3V41l-.1-.1c-3.6.5-7.2.5-10.7 0-1.2-.1-4.4-5.8-4.4-5.8l-.4 1.2-3.5-4.1 3.9 7.8.4-1.6c.7.7 1.1 1.6 1.3 2.5-14.6-.1-27.1-.3-27.2-.3s.4.2.6.4c.2.2.2.5.6.7.4.2 0 .4 0 .6 0 .3.8 0 .8 0l.3-.5h.9c.3-.2.7-.2 1 0 .4.4.1.1.5 0h.6s.5.3.4.6v.5h30.2v.3zm3.1-.5c0-.1.1 0 .1.1l-.1.1v-.2zm-.2-1c.2 0 0 .2 0 .3-.1-.1 0-.2 0-.3zm-.3.3v.4c0-.1-.1-.2-.1-.2l.1-.2zm-1.1 1.1V43l.2.1c0 .1-.1 0-.2 0-.1-.1-.1-.1-.1 0s.1 0 .1 0zm-.2-.2h-.2.2zm-8.3-.7c-.3 0-.5-.2-.5-.5s.2-.5.5-.5.5.2.5.5-.2.5-.5.5zM291.2 27.6zM291.1 27.5v.1s.2-.1 0-.1zM291.2 27.6zM273.9 93.1c-.3-1.9-1.2-2.9-1.8-2.9-1.4.8-2.8 1.7-4.1 2.7l2.1 4.2 3.8-4z"/><path class="st0" d="M274.3 93.4c.4 0 .9-.1 1.3-.4.3-1.5 1.4-2.7 2.9-3v-1.1l-7.5-.8s-.1.2-.2.9c4.6.9 3.5 4.4 3.5 4.4z"/><path class="st0" d="M276.3 92.6l2.9.2v.5c-.2 1.4.4 1.4.4 1.4s.9-1.4 1.5-2.5-.4-1.2-2-1.5-2.8 1.9-2.8 1.9zM288.6 100zM288.7 100zM316 91.5c-.1.1-.2.1-.1.2-.2.1-.2-.1-.4-.2h.1v.1c.1.2.2 0 .4-.1l-4.8-.4.1.1c.2-.2.4 0 .5.1l-.1.1c.1 0 .1.3.2.1v-.2c.2.1.4.1.3.4-.1 0-.1 0-.2-.1-.2.2.2.1.1.3-.1.2 0-.2.2 0 0 .1.1.3.2.3-.1-.2.1.1.1-.1l-.1-.2s.2.1.1.3c.1.1.3.2.4.2.2.1 0 .2.1.4-.2-.2-.1.1-.2 0v.5c.1 0 .3-.1.4.1 0-.1.2.1.2-.1 0 .2.2.2.3.1-.1-.2-.4-.3-.6-.3h-.1.1v-.4c.2-.1.3.2.4.2.1 0 .2-.1.2-.2.1.1.2.1.2.2.1 0 .2-.1.2-.2v-.1c-.1.1-.1-.1-.2-.1l.1-.1c-.2-.1-.2-.4-.4-.4v.1c0 .1 0 .2-.1.2l.1-.2V92c.1-.1.1-.2 0-.3-.1.1-.2 0-.2-.1l.4.2c0-.1.1-.1 0-.2l.2.1h-.1c-.2.3.4.2.5.4s.1-.1.1 0c.1.1 0 .2-.1.3h.2-.1s-.1.1-.1 0-.1 0-.2 0c0 .2.1.1.2.2h-.1c0 .1.1.2.1 0 0 .2-.2 0-.2.1-.1.1 0 .3.1.4l-.2.1c-.1-.3-.3-.2-.4-.2-.1.2.1.1.2.3s-.2 0-.2.3c.3-.1.3.2.5.3 0 .1.2.3.3.4l.1.2h-.1c0 .1-.1.3 0 .4.3 0 .1.5.4.5.1 0 .1-.1.2-.2 0 0 0-.1.1-.1 0 0 0 .1-.1.1 0 .1.1.3 0 .4-.1-.1 0-.3-.2-.2.1.1 0 .3 0 .3l-.1-.1s.1 0 .1-.1-.2 0-.3.1c-.1.1 0 .2 0 .2h.1c0-.1 0-.1-.1-.2 0 .1 0 .1.1.2l1 .2.9-.9-.2-.1c0-.2.2-.1.4-.1l3.1-3-4-.4zm-3.2.8c0-.2-.2-.2 0-.3v.3c.1 0 .1 0 0 0zm.3-.4c-.2 0 0-.3 0-.4l.1-.1-.1.5zm.2-.5c.1 0 .1 0 0 0 .1.2 0 .1 0 .2v-.2zm.2.6c-.2.2 0-.1-.2 0-.2.2.2-.1.2 0zm1.4 2.7c.1 0 .1-.2.3 0-.2-.1-.3.2-.3 0zm0-1.4c.2-.1.3 0 .4.1-.2 0-.4.1-.4-.1zm.6 1l-.1-.2.1.2zm2.5-.6c-.1 0-.1.1-.2 0 0-.1.2-.1.2 0zm-1.3-1.7l-.1.2.1-.2zm-.5 3l-.2-.3.3.1c0 .1-.1.1-.1.2zm.2-1.6c-.1 0-.3-.1-.2-.2 0-.1.3-.1.2.2zm-.2-1.8h0zM288.6 99.9c0 .1.2 0 0 0zM301.5 103zM301.5 103zM307.2 100.5h-.2v0h-.2c-.1-.3-.6-.2-.7-.5h-.1l-.1-.3s.1 0 .1-.1l-.1-.1v.1c0-.2-.2-.2-.1-.3l-.2.1c.1-.4-.3-.1-.4-.3-.2.2.2.3.2.5 0 0 .1-.1 0-.1s.3.2.5.4c-.1 0-.2 0-.3-.1v.2c-.2 0-.4-.2-.6-.3v.1c0-.3-.2-.2-.2-.6-.1.1-.3.2-.4.1l-.1-.1-.1.1c-.1-.1-.1 0-.1-.1h-.1s-.2-.2-.1-.2-.2 0-.2.1.2 0 .1.2 0-.2-.1-.1v-.1c-.1 0-.1-.1-.2 0v-.2c-.1.1-.2-.1-.2.2l-.2-.1c-.1.3.3.1.3.4.1-.2.1 0 .2-.1-.1.2.1.2.1.2h-.1c-.1.2.1.1.2.2 0-.1 0-.2-.1-.2-.1-.2.3-.2.1-.3h.1c-.1.1.1.3 0 .4.2 0 0 .2.2.1 0-.2.1 0 .2-.1.1.1.2.2.3.4l1.3.5c.5-.1.9-.1 1.4-.1 0-.1 0-.2.1-.3l-.2.4zM300.6 103.2zM301.5 103.1zM307.4 100.9c-.1.1-.2-.3-.3-.1h.1-.1c-.1 0-.3.1-.4.2l.3.1c-.2 0-.5-.2-.8 0v.1l.8.3.3-.3c0-.1.1-.2.1-.2v-.1s-.1 0 0 0zm-.3.1c.2 0 0 .1 0 0 .2.2 0 .1 0 0zM308 101.8l.9.3.4-.3h-.3c-.1 0-.3 0-.4-.1 0-.2.2 0 .4.1.1 0 .2-.1.3-.1-.4-.2-.9-.1-1.3.1zM295.9 103l.1.1c0-.1-.1-.2 0-.2s-.1.1-.1.1z"/><path class="st0" d="M281.3 84.5l.1 1.9c7.2 3.9 5.1 8 5.1 8s-.7 4-4.6 3.2c-2.8-.3-5.6-1.2-8-2.7l-3.3 3.5s2.4 6 4.9 12c.4-1.1 2.3-2.3 3.7-2.8-4.6-5-4.7-8-4.7-8l1.1.4-.2 1 1.6 2.5.8-2.2.5.2-.3 3.5 3 3.4s-.3-5.8-.4-6.1h.6l1.7 7.5 4.5 3.3-3.7-10.7.8-.4s2.3 5.6 4.8 11c3.5.1 4.4-.6 4.4-.6l-6.6-11.2.4-.3.2.2v-.2l-.1.3 8.3 10.5 4-2.3-5.2-5.3-.6-.6c.2.3.5.4.4.8h.2l-.1.2-.1-.2c0 .1-.1.1 0 .2.1 0-.2-.5-.4-.7l.1-.1c-.1 0-.1-.3-.2-.1l.1-.2c.1 0 .1.2.1 0l-3.8-3.9v-.1l-.6-.6c-.1-.1-.2-.1-.3 0s.4.2.5.3c-.2.2-.1.3-.1.4 0 .1 0 .2-.1.3-.1-.1-.3-.1-.4-.1l-.4.3h0-.3c-.1 0-.2.1-.3.2-.1.1-.1-.1-.1-.1-.1 0-.1.1-.2.1 0 .1 0 .1-.1.2h-.1l.1-.1c0-.1.1-.2.2-.2.1-.1.3-.1.4-.1.1 0 .1-.1.2-.2-.4 0 .1-.4-.3-.1.1-.2 0-.3.2-.4.2.2.1.3.1.6.1-.1.2-.1.4-.2l.1-.1.4-.2c-.3-.2-.7-.8-.6-1 .2.1.3 0 .4-.2V98c.1 0 0 .1.1.2l.2-.2.1-.1.6.5c.1-.1.2-.1.2 0l-.1.1.6.5v-.1h.2l-.1.1 4.6 3.6c0-.1 0-.2-.1-.2s0 0 0 .1-.1-.3-.2-.2v-.2l.2-.2c.1.2-.2 0-.2.2.2-.1.3.1.4-.1-.1.3.2.2.3.4v-.1c.2 0 .2.4.2.5l-.1-.1v.2l2.5 2c-.1-.2-.3-.4-.3-.5l.1-.1c0 .1.3-.1.5 0h-.2c.2.2.5.3.6.4.1.1-.1.3.1.2-.1-.4.4-.1.2-.5 0 .1.2 0 .1.2 0-.1.2-.1.2-.2h-.1.1c0-.1 0-.1.1-.2.1.1 0 .1 0 .2.1.1.2-.1.1-.2l.1.1v-.1c0-.1.2 0 .2.1h-.1v.2l-.2-.1v.2h.2l.1.2s0-.1-.1-.1l-.1.3c-.1-.1-.2.2-.4.1 0-.2-.1-.3-.3-.3h-.1c.1-.3-.2 0-.1-.3-.2.2 0-.2-.3 0v.2c0-.1-.1-.2-.2-.1.2 0 0 .4.3.3h-.1c0 .3.2.1.3.3h-.6l.4.3c0-.1.2 0 .1-.2 0 .1.1.2.1.3l-.1-.1 2.5 2 .9-.7c-.2 0-.5.2-.5-.1-.1-.1-.1.1-.2.2-.1-.1.2-.1 0-.2h.1c0-.1-.1-.1-.1-.1l.2-.1c.1 0 .2.1.3.2v-.1c.1.1.1.2.2.2l.2-.2c0-.1 0-.3-.1-.2.2-.2-.1-.2.1-.3h.1c-.1.1 0 .2 0 .4l3.1-2.6-3.8-1.8c0 .2.4.2.5.3-.2.2-.2.2-.2.3 0 .1 0 .2-.2.3-.1-.1-.3-.2-.4-.2l-.4.2h-.1l.2.1c0 .1-.1 0-.2-.1h-.3c-.1 0-.2.1-.2.1v.1-.1c-.2 0-.1-.1-.1-.2 0 .1-.1.1-.1.1v-.1h-.1c0 .1-.1.1-.1.2h-.1c.1 0 .1-.1.2-.1l.1-.1v-.1s.1.1 0 .1h.6l-.1-.1.1-.1c0-.1.2-.2-.1-.1 0 0-.1 0-.1.1v-.2c.1-.1.1-.1.1-.2-.2.1-.2-.2-.2-.3l.2.2v-.1l.1.1c0-.1.1-.1.2-.1.2.2 0 .3 0 .5.1-.1.3-.1.4-.1l.1-.1.5-.1c-.2-.2-.3-.4-.4-.7l-.4-.2h-.1v-.1l-.3-.2v.2-.1l-.1-.1-.3-.2v.1c-.1 0-.2 0-.3-.1.1 0 .1 0 .2-.1l-10.4-5.4V95l3.3 1.3c.1-.1.2-.1.2 0l9.3 3.6c.1-.1.1 0 .1-.2-.1-.2-.4-.3-.7-.5 0 0-.1 0-.2.1-.2-.1-.1-.4-.3-.5.1-.2.1.1.2.1s0-.2-.1-.3c.1-.1.3-.3.3 0 .4-.1.4.3.7.3l.1-.1c-.1.2.2 0 .3.3V99c.2.1.3.2.4.3 0-.1.1-.1 0-.2h.3v.1c.2 0 .4.1.4-.1s-.3-.2-.3-.4l-.1-.2c0-.2.1 0 .1-.1h-.1c.1 0 .2-.1.3-.1l.2.3c0 .6.8.3.9.5.1.1.2.3.3.2v.2h.2c0 .1-.2-.1-.2.1.1.3.5 0 .7.3 0 .1.1.1.1.2.1 0 .2.1.2.2v-.1c.1.2.4.2.7.3h.1c.1 0 .2 0 .2.1h-.3l-.1.1.1.1c-.2-.1-.1.1-.2-.1-.1 0 0 .1 0 .2v-.1c-.1 0-.1 0-.1.1v.1s.1.1.3 0c.5-.2.7-.7.7-1.2-.2.2-.6.5-.7.2.2-.2.6-.3.5-.5.3.3-.4.2 0 .4.2 0 .2-.2.3-.2-.1.2.2.2.2.3.5-.1.8 0 1.4 0 .1.1.1.1.1.2.1 0 .1-.1.2-.2 0-.1-.1 0-.2 0h.3l.1-.1c0-.1-.1-.2-.1-.3l-.1-.1s.1 0 .1.1l.3-.1v-.2h.4l.1-.1c-.4-.2.1 0 .1-.3.3-.1.1.1.3.2.1-.1.1-.2.1-.3 0 0-.1-.1-.2-.1.1 0 .2 0 .2.1.1.1.1.2 0 .3l.6-.5c0-.1-.1-.2-.1-.2 0-.1.1 0 .3.1l.9-.8-1.6-.4h-.1l-3.5-.9v.1s-.1 0-.1.1c0-.1-.1-.2-.2-.3l-2.1-.5v.1l-.2.1-15.9-4.2V91l17 3.2v.1l2.9.6c-.1-.1-.2-.3-.4-.3s-.2 0-.2.1c-.1.1-.1-.1-.2-.2v.1l-.2-.1c0-.1.2 0 .2-.1s-.1-.2 0-.4c-.3 0-.6-.1-.9-.1v-.2c0-.1-.2-.2-.2-.1s0 .1.1.1c-.3-.2.1-.4-.1-.5l-.1-.2h.1c0-.1-.1-.1-.1-.1h.1c0-.2-.3 0-.3-.2h.2l.2.1c0 .2 0-.1-.1.1-.1.1.3.2.4.4h-.1c.1.1.3.5.5.5 0 0 0-.1-.1-.1s.3 0 .4-.1c.1-.1 0 .3.2.4l.1-.2c.1.2 0 .2 0 .4.2 0 .2 0 .3.1.1.1-.1 0-.1.1s.2.1.2 0c-.1.2.3.3.2.4.1.1.1 0 .2-.1 0 .1 0 .1.1.1l-.1.1c0 .2.1 0 .2.1l-.1.1h.3s-.1 0 0-.1.1 0 0 .1l3 .6-.1-.1c.1 0 .2 0 .2.1h.2s0-.1.1-.1-.1.1 0 .1l.4.1c-.1 0-.1-.1-.1-.2s-.3-.2-.2-.4c0 .1-.1 0-.2 0l.1-.1c-.1-.6-.9-.3-1.1-.8-.2.1-.4-.1-.6-.1 0-.2-.4-.2-.5-.3v.1c-.5-.1-.7-.6-1.1-.7.1 0 .2.1.3.1.3-.5-.4-.2-.4-.6-.2-.2-.7.1-.5-.4-.1 0-.2-.2-.3 0-.2-.2-.2-.5-.5-.6 0 0-.1 0-.1-.1s.2 0 .3 0v-.1c.1.1.2 0 .2.1-.2.1.1.2.1.3 0 .1.1-.1.1-.1h-.1.1c.2.1.4.2.7.3 0-.1 0-.1-.1-.2l-.1.1c-.1-.1.1-.2.1-.3 0-.1-.1-.1-.1 0s-.2-.2-.1-.3c-.1-.2-.3-.3-.5-.2l-.1-.4h-.2l-.8-.1c.1.1.3.2.4.2v.3h-.1c-.1.1.1 0 0 .2-.4 0-.2-.3-.5-.5v.1c-.2-.2-.3-.1-.4-.3l-18.5-1.6-.3-1.1 18 1V89h.1v.1l13.5.7 4.8-5.5-44.5.2zm.3 18.9s-.1-.2 0-.2c.1-.1.1.1 0 .2zm2.2-2.3h.2c.1.1-.2 0-.2.1v-.1zm-1 1.1l.1-.3-.1.3zm.5-.2v-.3l.1.1c.3 0 .5-.5.7-.3-.2 0-.5.4-.8.5zm2.8-2.1s0 .1.1.2.1-.1.1-.2c.1.1.3.2.4.3-.1-.1-.3-.1-.5-.1s-.1-.2-.1-.2c0-.2.1 0 0 0zM285 102c.3-.2.1-.1.2 0h-.2c.1 0-.2 0 0 0zm.1-.6c-.1.2 0 .2.2.2-.3.2-.5 0-.2-.2zm.4-.5l-.3.4.3-.4zm0 .6c0-.2 0-.1 0 0l.2-.2c0 .1 0 .1-.2.2l-.1.1c.1-.2.1-.3.1-.1zm.2.4c0-.1-.1 0-.2-.1l.1-.2c.2.1.2.1.1.3zm.4-1.1c.1-.2-.1-.3 0-.4.3 0 .1.2 0 .4zm.4.4l.1-.1c0-.1 0-.1.2-.2l-.2.2.2.2c-.1-.2-.2-.2-.3-.1zm.4-.7l-.2.2c0-.1 0-.1-.1-.2h.3l.1-.1-.1.1zm.5.3c-.1 0-.2 0-.2-.1h.1l.2-.1h-.1v.2zm5.6 4s.1.2 0 .2c0-.1-.1-.3 0-.2zm-3.3-5.4v.4l-.1-.2.1-.2zm-1.2 1.1c0-.1.1-.2.1-.2s0 .1-.1.2c0 .2-.1.3-.2.4.1-.1-.2-.1-.2-.3.1 0 .3 0 .4-.1zm-1.1-.7c0-.1-.1-.2.1-.2l-.1-.1.2.1-.2.2zm1.1-1.1c-.1-.1 0-.1 0-.2 0 0 .2.2 0 .2zm12.6 7.8c-.2 0 .1-.2-.1-.2l.1-.1v.3zm.1-2.5v-.2.1c-.1.1.1.1 0 .1zm.9 1.4l-.3-.2.2.1c.1-.1-.2-.1-.1-.3v.1c.1 0 .2 0 .1-.1 0 .1-.1.3.1.2.1.2 0 .1 0 .2zm.1-.8c-.1.2-.3-.2-.5-.2 0 0 .1 0 .1-.1h-.1c-.1 0-.1 0-.1-.1-.1-.1-.3-.1-.4-.1.2 0 0-.2 0-.2s.2.2.2.1-.2-.1-.1-.3c0 .1.1.1.2.2l.1-.1v.1c-.1 0-.1.1-.1.2h.2v-.1.1l-.1.1h.1v-.1l.1.1c.1-.1-.1-.1-.1-.2l.2.1.1-.1v.2c.1.1.3.1.2.4.3-.1-.1-.5.2-.4-.2.1 0 .4-.2.4zm.1.1c.1 0 .3.1.3.2-.1 0-.3-.1-.3-.2zm.9-1.9l-.1.1v-.2l.1.1zm-.6.1l.2-.1-.2.4v-.3zm-.6.3c0 .1.1.1.1.2l-.2-.1.1-.1zm-.4 0c.1.2.4.2.4.6.2-.3.2 0 .5-.2.1 0 .2.1.1.3.1-.1.1.2.3.1 0 .1-.2.3-.1.5.1 0 0-.1.1-.2.1.2-.2.3 0 .4.2.1.1-.1 0-.2h.1v-.1c.2.3.3.2.5.5-.4.4-.6-.4-1.1-.3-.1-.2 0-.2 0-.4-.1-.2-.3-.4-.5-.4s-.5-.1-.7-.2c0-.3.3-.2.4-.4zm-1 .4c.1.1.3.1.5 0l.2-.2c0 .1-.1.2-.2.2-.1.1-.2.3-.4.3.2-.1-.1-.2-.1-.3zm0 2.6c0 .1-.1.1-.1.2l.1-.2zm-.6-2.3l.1-.2.1-.1-.2.3zm.5-1.2v.1-.1zm-.5.2l.1-.1h-.1v-.2h.2s0-.1.2-.1v-.1l.2.1-.3.2v.4c0 .1.1 0 0-.2-.1.1-.2.1-.4.2l-.1-.1.2-.1zm-.4.5h.3-.3l.2.2-.2-.2zm-1.8.9c.1-.1-.1 0-.2-.1l.2-.2c.2.1.2.2 0 .3zm0-.5l-.2.2c0-.2.1-.3.2-.2-.1-.2-.1-.1 0 0l.1-.1c0 .1-.1.1-.1.1zm1.3.1c0-.1-.2-.1-.3-.2l.1-.1c0-.1 0-.2.2-.2l-.2.2c.1.1.2.2.2.3zm.4-.8l-.1.1-.2.2v-.2l.3-.1zm-.7-.5c.1 0 .1-.1.2-.1 0 0-.1-.1-.1 0l-.1-.2.2.1v.1l.2.2.1-.2s0 .1.1.1l-.2.1c0 .1.1.1.1.2-.2-.2-.3-.2-.5-.3-.2-.1-.1-.2 0-.3.1-.1 0 0 0 0s.1 0 0 0-.1.3 0 .3zm-.1-.1l-.1-.2.1.2zm-.2 0v.1l-.1-.1h.1zm-.4.2l.2.2.1-.2c.2 0 0 .3.2.3v-.1c.3.1.1.3-.1.5.1-.1.1-.2.1-.3-.1.1-.2-.1-.3 0-.1-.1-.2-.2-.3-.2.1 0 .1-.1.1-.2zm-.2.6l-.4.4.4-.4zm-.1-.9l-.1.1.1-.1zm-.3-.4l.1.2-.1-.2zm-.2 1.7c-.2.2 0 .2.1.2-.4.1-.5-.1-.1-.2zm-.2-1.6l.1-.1-.1.1c.2.1.1-.2.3-.1.1.1-.2.2-.3.1zm0-.6l.2.1-.1.2-.2-.1c.1 0 .1 0 .1-.1.1-.1.1-.1 0-.1zm-.2.4s0-.1 0 0v.2c-.1 0-.2-.2-.2-.3 0 .1.3-.2.2.1zm-1-.1l.1.3-.3-.3c.1-.1.1.2.2 0zm14.4-2.9zm0-1c.1 0 .1-.1.1-.1 0 .1 0 .2.1.2s-.2 0-.2.1c-.1 0-.1-.2 0-.2zm0 .4h-.1c.1 0 .2.2.2 0 0 .1 0 .3.2.2-.2.1-.4.1-.4-.3l.1.1zm-.5-.1v.3-.3zm-.1 1.1h.2c0-.1-.2-.1-.1-.3.1-.2.1 0 .1.1.1-.1.2.2.4.3-.1 0-.2 0-.2.1 0-.1 0-.2-.1-.2s0 .2 0 .2l-.1-.1-.1.1c-.1-.1-.2-.1-.1-.2zm-1.1-1.1c.1.2.4.2.5.4v-.1c0 .1.1.1 0 .2l.3.3c-.2 0-.3.2-.4.1-.1-.1.1 0 .1-.1-.2 0-.3-.4-.6-.4l.1-.4zm-.4-1.1v.2-.2zm-.5 1.6c.1.1.1.2.1.3 0-.1-.1-.2-.1-.3zm0 1.2c.4-.1 0 .1 0 .2-.3 0 0-.1 0-.2zm-.2-1.2zm-.5-.5c.2.1.5.2.5.3-.1.1-.1.2-.3.1.1-.2-.1-.1-.2-.2 0-.1-.2-.2 0-.2zm0 .8c.1-.1 0-.1 0-.2s.1.1 0 .2zm-.8-.8c0 .1 0 .1 0 0zm.1.3v-.2.2zm.4 0c0 .1.2 0 .2.2l-.3-.2h.1zm-.1 1.2v.1l-.2-.1h.2zm-.2-1.8c-.2 0-.1-.1-.3-.2.1.1.3.1.3.2zm-.8-1.3s.1-.2.1-.1c.1.1.1.2-.1.1-.1 0 0 0 0 0zm-.4-.9l-.1.2c.1 0 .1 0 .2-.1l.1-.1c0 .1.1.1.1.2l-.2-.1v.2c0-.2-.1-.1-.2-.2.1.2-.1-.1.1-.1zm-1.5 3l-.1-.2c.2-.1.3.1.4.2.1.1-.2-.2-.3 0zm.5-1.1zm-.5-.7zm-.2-.1c-.1.2.1.2.1.3 0 .1 0-.1-.1-.1s.1.2.1.2c.1.1.1 0 .1-.1 0 .2.2.2.3.2s-.1.2-.1.2c-.1.1.1 0 .1.1-.1-.1-.2.1-.2.2 0-.1-.1-.2-.1-.1l.1-.2c-.1 0-.2-.1-.2 0-.1-.2-.1-.4-.3-.5h.1s0-.2.1-.2zm-.3 1.2h.3c.1 0 .1.2 0 .2l.1.1c-.2.1-.1-.3-.4-.3.1.1.1.2.2.2h-.1c-.1 0-.1-.1-.1-.2zm-.1-2.5l-.2.1.2-.1zm-1 2.8zm.1.1c.1 0 .1-.1.1.1 0 .1 0 .2-.1.2l-.2-.1c.1-.2.2-.1.2-.2zm-4.9-4.1l.2.5-.2-.5zm-.6-.5h-.2c.1-.1.2-.1.2 0zm-1 1.4s-.1 0 0 0zm-2.4.3c.3-.2 0 .1.1.2-.3.1-.1-.1-.1-.2zm-2.2 2.5v-.1.1zm4.1 3.2c.1.2 0 .2-.2.1.1 0 .1-.1.2-.1zm-3-2.9c.3-.3 0 .5 0 .2 0 0-.1-.2 0-.2zm-.3.2h.2-.2c0 .1-.1.2 0 0 .1.1 0 .1 0 0zm-.1.1c-.1.1-.1 0 0 0zm-.8-.9v-.1h.3c-.1.1-.2.1-.3.1l-.2.2c0-.1.1-.1.2-.2zm-.4 0l-.2.1h-.1l.3-.1zm18.4-3.5v.1c-.1.2-.1-.1-.2-.1h.2zm2.1.5c.1.1.3-.2.3.1-.1.1-.3-.1-.3.1v-.2zm-.4.2v-.2.2c0-.1 0-.1 0 0zm0-.7l-.1.2s.2 0 .2.1c0-.1-.2 0-.2.1l-.1-.1.1-.1c-.1-.1-.3-.1-.4-.2.1-.4.2.1.5 0zm-1.7-1.5h.1s-.1-.2.1-.3 0 .1.1.1.2.4-.2.4h.1c0-.1-.3 0-.2-.2zm0 .2v.3-.3zm-.7-1.3c-.2.2-.3 0-.3-.1.1-.2.1.1.3.1zm-.7.2c.2 0 .5-.2.6 0-.1 0-.1 0-.1.2s.2.1.3.1h-.3c-.2-.2-.3-.3-.5-.3 0 .1-.1.1 0 0zm-1.1-.5c0 .1 0 .2-.1.2l-.1-.2c.1 0 .1.1.2 0zm-4.1-.5c.1 0 .2 0 .2-.3l.2.8-.4-.5zm-2.3.8c.2.3.1.2 0 .4 0 0 0 .1-.1.1l.1-.1c0-.1-.3 0-.3-.1.3 0-.1-.3.3-.3zm-9.9 6.3v.2l-.2-.2h.2zm17.3-9.6c.1 0 .1 0 0 0 .1.1 0 .1 0 0zm0-.1h.3-.3zm3.8-2.8h.2c-.2.1-.2.1-.2 0zm1.8-.4zm1.5 1.8v-.2.2zM309.4 101.7l.1-.1-.1.1zM221.4 91.3zM259 104.5zM239.1 103.3s-.1.1-.1 0c-.1 0-.2.1-.3.2.1 0 .2.1.3.1l.4-.4s-.1 0-.1-.1c-.1.1-.2.1-.2.2zM219.4 89.6zM260.1 110.5l.6-1.5-.1.1c-.1-.1.1 0 0-.1s-.3.1-.5.1v-.1c-.1 0-.5-.1-.7.1h.2c.1 0-.1.2-.2.4.3.3.5.6.7 1zm-.1-1.1l-.2-.1.2.1zm-.1.1v.1c.1.1.2-.2.3 0-.1 0-.1.1-.1.1s.2 0 .2.2-.1 0-.2 0c0 0-.3-.1-.2-.4zM238.6 103.7l-.1-.1.1.1zM255.2 107.7l2.4-2.8-.1-.5h-.1.1l-.2-1.6c-.3.1-.4.5-.6.5-.2 0-.3 0-.4.2l-.1-.2-.1.1c-.1-.1.2-.1.1-.2-.3 0-.4.4-.7.4-.4 0-.3.2-.6.1-.1 1.1-.2 2.6-.2 3.6h.2l-.1.2v-.1c-.1.1-.3 0-.1.2h-.1v.8l.6-.7h-.2s.1-.1 0-.2c.1 0 .3 0 .2.2-.1.1 0 0 0 0zm2.2-3.7zm-.2.1l-.1-.1.1.1zm-.3 0l-.1.1h.1c-.1 0-.2.2-.3 0l.3-.1zm-.2.5c0 .1.3 0 .2.1-.1.1-.5.3-.6.2 0-.1-.1-.2.1-.3.1.2.2 0 .3 0zm-.3-.3c-.1 0-.2.1-.2-.1.1.1.1.1.2.1zm-.2.5v.1-.1zm-.3-1.4l-.2.1.2-.1zm.1 1.7c-.1 0-.2 0-.3-.1.2 0 .3-.1.3.1zm-1.1 1.4c.2-.1 0-.3.2-.4.2-.1-.1.1.1.1.1-.2.5-.1.7-.3l.2.2c-.3 0-.4.2-.6.2l.1.1c-.1 0-.2 0-.1-.1l-.6.2zm.1.6h.2v.1l-.2-.1zM257.3 102.4v-.1.1zM218.6 94.7zM228 87.9s0-.1 0 0c0-.1-.2 0 0 0zM228 87.8zM254 85.1c.2-.1.3-.1.3 0v-.6h-.3c.1.1.2.2.3.4-.2-.1-.3.1-.3.2zM221.6 84.6c.1-.3.1.2.2-.1l-.1-.1h-.2c0 .2.1-.1.1.2zM237.4 104.9h-.1zM254.1 85.4l-.3-.1s0 .2-.1.3h.2l.2-.2zM227.9 87.8z"/><path class="st0" d="M253.6 85.8c.2-.1.4-.2.4-.3h-.1l-.2.1-.1.2zM217.8 93.9l.2-.2h-.2c-.1 0-.1 0-.2.1l.2.1zM219.7 91.5c.1.1.2 0 .3.3 0-.1.2-.3.3-.2v-.1c.1 0 .1 0 .1.1v-.1h-.7zM218.2 91.9c.1 0 .2-.1.2-.2.1.3.4-.1.5.2l.1-.1.1.2v.1h.1V92c.1.2.2.1.2.2l.1-.2c.1.4.2-.1.3.1 0-.3-.2-.2-.3-.4v.1s-.2 0-.4-.1c0 0 .1-.1.2 0v-.1l-1.1.1v.2z"/><path class="st0" d="M219.3 92.9c-.1 0-.2 0-.2.1.3-.2.8-.1.9-.4v-.1c-.2-.5-.5.1-.7-.1-.1-.1-.2-.2-.2 0v-.2h-.1c0-.1.1 0 .1-.2s-.3.2-.5 0-.2 0-.3-.2v.2c-.2-.1-.4.1-.6 0v-.2l-.1-.1c.1 0 0-.1.1 0v-.1h-.5l-1.5.1.6.6v-.1.1l.2.2s0-.1-.1-.1h.1v.1l1 1c-.1-.2.2 0 .4.1h.2c.1 0 .2 0 .2-.1.2 0 .3-.2.4-.4V93v.1c.2-.1.3-.3.6-.2zm-2.4-.9v-.1.1zm0 0c-.1-.2-.1 0 0 0zm.1.6c0-.2-.1-.2-.2-.1-.2.1-.1 0-.3.1v-.2c.1 0 .2-.2.4-.1.1.1.1 0 .1.1v.2zm1.8-.3z"/><path class="st0" d="M254.1 104.2v-.2h-.2c.2-.1 0-.1.2-.1s-.1-.1-.1-.1h.1c.1-.1-.1-.2-.2-.2.1-.1.2-.3.3-.3l.1.1.3-1.2h.6c-.1.5-.1.9-.1 1.4.1-.1.2-.2.2-.4.3.1.5-.4.8-.3l.1-.2.3.1v.1l.2-.1-.1-.1c.2.1.2 0 .3.1v-.2c.3.3.3-.2.5-.2-.1-.3-.3 0-.5-.1 0 0 0 .1.1.1s-.3.1-.6.2c.1 0 .1-.2.3-.2l-.1-.1c.1-.2.4-.3.6-.4-.1 0-.1 0-.1-.1 0 0-.1 0-.1-.1.1 0 .1 0 .1.1.2.2.3 0 .5.1v-.4l.5-.2v.1h.1v-.1c.1 0 .3 0 .3.1s.1-.1 0-.2-.2.1-.2 0c-.1-.1.2.1.2-.1l.1.1c0-.1.2 0 .1-.2l.1.1c-.1-.1.2-.2 0-.3l.2-.1c-.2-.3-.3.2-.5 0 .1.2 0 .1-.1.3-.1-.1-.2 0-.3 0-.1-.2-.2 0-.3 0 .1.1.1.2.2 0 .2 0-.1.3.2.2l-.1.1c0-.1-.3-.1-.3-.3-.1.2-.1-.1-.2.1.2.1-.1.1 0 .2-.3.1-.5.1-.8 0-.2.3-.5.2-.7.4h.1c-.2 0-.4 0-.4.1-.2.3-.2-.3-.4-.1v-.2c-.1.1-.2 0-.2-.1s-.2 0-.1.1c-.1 0-.2.1-.4.1h.1c-.1-.2-.1-.2-.2-.3.2 0 .5 0 .6-.1.1-.1.2-.1.3-.3-.1 0-.1-.2-.2-.2-.2 0-.1.1-.2 0 .2 0 .2-.3.4-.2v.2c.2 0 .4 0 .5-.2 0 0-.1-.1-.2-.1.2-.1.3-.3.4-.2.2-.1.4-.4.5-.2.2.2.2.2.1.3v-.1h-.5c.1 0 .1.2.2.2s-.2.3-.3.2l.2-.2c-.1 0-.2-.1-.2 0-.1.1 0 .1 0 .3h-.1v.2h.3c.1-.2.2-.2.2-.3.5.2.7 0 1.2 0l-.1-.1c.1 0 .3-.1.4-.2-.1.1.1.1.1.2v-.1c.3.1 0 .3.2.3s.5-.2.8-.3v-.2c.2-.1.4.1.6 0 0 .2-.1 0-.2.1s.2.2.2.1c0 .2 0 .4-.2.3-.2.3-.5.1-.7.4v.1c-.1-.2-.2.2-.4.1v.1l-.3.1.3.8.4 1.1.5-.8v-.1h.1l.1-.1v-.1c0-.1-.1-.1-.1-.2h.2v.1l.8-1.2-.2-1 1.1-.4c-.1 1-.5 1.9-.9 2.8.1 0 .1.1.1.2 0-.1-.1-.1-.2-.1-.3.6-.7 1.2-1.1 1.8 0 0 .1.1 0 .2h-.1c-.4.6-1 1.4-1.6 2.1.2.1.4-.1.5 0 .1.1-.1-.1-.1 0s.1.3.2.1v.1c-.2-.3-.4 0-.6-.1-.2-.1 0-.1 0-.1-.3.3-.6.7-.9 1.1l.7.3.1-.1.1.1c.2 0 .2-.1.3-.1v.2h-.3c.4.2.8.4 1.1.6 0-.1.2 0 .2 0l-.1-.1h.2c.1 0-.1.2 0 .3.1.1.2.1.4.2.1-.3.5-.4.6-.7l.1.1c.1 0 .2 0 .2-.1s-.1 0-.1 0c.3-.1.2.3.5.3h.2v.1c.1.1.1 0 .1 0l-.1.1c.2.1.2-.1.3-.1 2.2-5.4 4.2-10.3 4.2-10.3l-3.3-3.5c-1.5.9-3.1 1.7-4.8 2.1l.1.1h-.1v-.1h-.1v.1c-.1.1-.1.1-.2.1h-.1l.1-.1c-.3.1-.6.2-1 .2 0 .2-.1.1-.1.4-.1.1-.2.1-.3-.1 0 .1-.3 0-.3.2-.1-.1-.1-.4-.3-.3 0 .1.1.1.1.1 0 .1-.1-.1-.2-.1h-.1s.1.1.1 0h-.1s0 .1.1 0c-.4 0-.4.2-.8.2 0-.1 0-.2.1-.3-3.9.7-4.6-3.2-4.6-3.2s-2-4.1 4.9-7.9l-.7.1-.1-.5-.1.1.2-.3h-.2l.1-.1h-.1l-.1.1s0-.1.1-.1c.2-.1.3-.2.5-.3v-.1c-.3 0-.7 0-.7.3v-.3c-.3.1-.5.1-.8 0 .1-.1.2-.1.2-.2-.5.1-.1-.8-.4-.5-.2-.1-.3.2-.4.1l.1-.1-.3.1c0-.1.2 0 .2-.2-.1 0-.3-.1-.4-.1h-.6l-26-.1h-.1v-.1h-.2v.1c-.2.1-.4 0-.5-.2v.1s-.1 0-.1-.1h-1.4l.1.1v.1c-.1-.1-.2.2-.3.2l.1-.1c-.2-.1-.4-.1-.5-.2V84h-.1c.2.3-.2.2 0 .6 0-.1-.2 0-.1-.2 0 .1-.1.2 0 .3v.2c-.1 0 0-.1 0-.2s-.1.2 0 .2h-.1s-.1.1-.1 0v-.1l-.1-.2h.2v-.2s-.1 0-.1.1l-.1-.2V84h-2.3s0 .1.1 0c0 .2.1.1 0 .3h-.1c0-.1-.1-.2-.1-.3h-2c0 .1.1.1.1.3l-.1-.2V84h-.1c-.1 0-.1.1-.2 0h-1.3c0 .2.2.1.1.2 0 .1-.1 0-.1.1.1-.1.2.3.3.1 0 0 .1.2 0 .2v.4c-.1-.1-.1.1-.2 0-.1 0-.2.1-.3 0-.1-.1 0 0 0-.1v.1s.1-.3.1 0v-.2c-.1-.1-.2-.3-.3-.2 0-.1.1-.1.1-.1h-.2v.1h-.1v-.1h-2.7c-.1.5.3.2.2.7l.1-.1v.2c-.1.1-.2-.2-.4-.2s0 .1-.1.1.1-.1.1-.2-.1-.2-.2-.3v-.1h-.1v.1h-.1v-.1h-1.7l1.1 1.2v-.1h-.1c0-.1.1-.1.1-.1s0 .3.1.3.1 0 0-.2c.1 0 .1.3.1.5l3.5 4h.9v-.1.1h1.3c.2 0 .4-.1.5-.2 0 .1.2.2.3.2.1-.1 0 0 0 0s.1-.2.2-.1 0 0 0 .1h.3c-.1 0-.2 0-.2-.1s.2.2.2-.1l.1.1v-.3c0-.1-.1.1-.1.2v-.1h-.2c0-.4-.3-.4-.3-.5.1 0 .2.1.3.1.1 0 .1-.2.1-.2 0-.1.1.1.1.1h0c.1 0 0 .3 0 .4h.1V89l.1.1c0-.1 0-.2-.1-.2l.1-.1c0 .3.2.2.3.4v-.1c.1.1 0 .2.1.2 0-.2.1 0 .1-.2.1 0-.1.1 0 .2s0-.1 0-.1.1 0 .1.1v-.1l.1.1.1.1v.3c-.1-.1-.2-.2-.3-.1v.2c-.1-.2-.2 0-.3.1 0-.1 0-.1-.1-.1v.3h.4V90h.6v-.1c-.1-.1-.1.1-.1-.1.1.1.2-.2.2 0l-.1.2.1.1h.2s0-.1-.1-.1c.1 0 .2-.2.3 0 .1 0 .3-.2.4.1l1.1-.1c0-.1 0-.2.1-.2s-.1.1-.1.2h.1c0-.1.1 0 0-.2.1 0 0 .1 0 .2l3.8-.2c0-.1.1-.1.1 0h.5H225.9h-.1l.1-.1s.1 0 0 0h.1v-.1h-.1c.1-.1.1 0 .1 0 .2-.1.1-.1 0-.2.4.2.4-.1.7.2-.4-.3.5-.3.1-.6.3.2.1 0 .4.2-.2 0-.3.3-.4.5h.2c.1-.1.2-.2.2 0h.5c0-.1 0-.2-.1-.3.2 0 .2.2.4 0s-.3-.2-.5-.2c.1-.2.1-.3 0-.4v-.3c.1.1.2.1.4.1l.3-.3h-.2.4c.1-.1.2-.1.2-.2.1-.1.1.1.1.1.1 0 .1-.1.2-.1v-.2h.1l-.1.1c0 .1 0 .2-.1.2-.1.1-.2.1-.3.1-.1 0-.1.1-.2.2.3 0 0 .4.3.1-.1.2.1.3-.1.4-.2-.1-.1-.3-.1-.5-.1.1-.2.1-.3.2l-.1.1-.4.2c.3.2.5.5.7.8l18-1-.3 1.1-20.8 1.8c-.2.1-.3.1-.4.1.1 0 .1 0 .2-.1l-1.1.1c-.2.3-.2.7 0 1.1.1-.2.3-.6.5-.3-.1.2-.3.4-.2.6-.3-.2.2-.3-.1-.4-.1.1-.1.2-.1.3 0-.2-.2-.2-.3-.2-.3.2-.6.2-1 .4-.1 0-.1-.1-.2-.2-.1.3-.1.7.1.9-.2.1-.3 0-.4.2.4.1-.1 0 .1.3-.2.2-.2-.1-.3-.1v.3h.2-.2c-.2-.2-.1-.7-.4-.9-.1 0-.2-.1-.3-.1 0 .1.1.1.1.1v.2s.1.1.1-.1c.1.1.2.2.3.4h-.8c.1 0 .1.2 0 .3 0-.2-.1-.1-.1-.2s0 .1.1 0-.1-.1-.1-.1-.1 0 0 .2c-.1-.2-.1-.1-.2-.1v-.3c-.1-.1-.1.1-.1-.1.1 0 .1 0 .1-.1l-.1-.2.1.1v-.2l-.5-.1c.2.6.6 1.1 1 1.6.1.2-.3-.1-.4 0-.4-.1-.2.4-.5.4v-.2c-.1-.1-.3.2-.3.3-.1-.1-.1-.6-.3-.6-.4.2-.4.9-.2 1.1l.3-.5c0-.1 0-.1.1-.1.2.2-.2.5 0 .7l-.5.2s.2-.2 0-.3c-.2.1-.1 0-.3 0 .1-.6.1-1.3 0-2v.1l-.1.2-.2-.1c0 .1-.1.1-.1.2 0 0 .1.1 0 .1 0 .4 0 .8.1 1.2l.8.8 25.9-5.2v.8L222 97.9l4.4 4c0-.1.1-.1.1-.2.1-.1.2-.3.3-.4 0 .1.2.2.1.3-.1-.1-.3-.1-.4 0 0 .1-.1.1-.1.2l.3.2c.1 0 .1-.1.1-.1.1 0 .1 0 .1.1l.3-.1v-.1l.4-.2-.1-.1c.1 0 .1.1.2.1l.5-.2c0-.1-.1-.2-.2-.2 0 .1.2.1.3.1l-.1.1 1.5-.6v-.1h.1c-.1-.1.1 0 0 0l15.2-5.9v.9l-15.7 8.4 3.6 3.1c.1 0 .2-.1.3-.1l.3-.2c-.3.4.2.2.3.4l.1-.3c.1 0 0 .2.1.2.1-.2.5-.4.5-.7h-.4c-.1 0-.1.1-.2.1l.2-.1s.1-.1 0 0h.2v-.1h-.1c.1-.1.1-.1.1 0 .3-.1.2-.2.1-.2.5.1.5-.2 1 0-.6-.2.7-.5.3-.7.4.2.2-.1.5.1-.2.1-.3.2-.4.4l1.2-1c0-.1 0-.2.1-.3h.3l.6-.5h-.2H238.1s-.1 0-.1-.1c.2.1.2-.1.3-.1l.2-.1v-.1l-.2.1h-.1c0 .1 0 .1-.1.2 0-.1 0-.1.1-.2h-.1.1v-.1c.1-.2.2-.3.3-.5v.1c0-.1 0-.2.1-.2s.1.1.2.1v-.2c.1 0 .1.2.1.3l.1.1.1-.1h.1l.1-.1.1-.4v.2l-.1.1.1-.1c-.1 0 0-.2 0-.2l.1.1 6.1-4.8.4.6-.6.6c.1 0 .2 0 .4.1v.1h.3v-.3c0-.2-.1 0-.3.1v-.1h-.2s.2.1.3.1l.2-.3h-.1c.1-.2.3.1.5 0-.1 0-.2-.1-.2-.2.2.2.2-.1.5.2-.1-.1-.2 0-.2.1 0 0 .1.1.2.1v-.2s.1.1.1.2c.1 0 .1 0 .2-.1 0 .2-.1.1-.2.1s-.1 0-.2.1c-.1 0-.3 0-.2.2h.1v-.1s0-.1 0 0v.1c0 .1 0 .2-.2.2 0 .1.1.1.2.1l-.1.1c0 .2.3 0 .3.1s-.2.1-.1.2c.1-.2.3.1.4-.2 0 0 .2.1.1.2l-.1-.1c-.2 0-.1.1-.3.2-.2.2-.3.3-.4.2h-.1.1c.1 0 0-.3.2-.2l-.1-.2c-.2 0-.4-.1-.5.1-.1-.1.1-.2.1-.3l.1-.1c-.2-.1-.2 0-.3-.1-.1-.1 0 0 0 .1s-.1-.2-.2-.2c.2.2-.1.5.2.6l-.2.1v-.2c0-.1 0 .2-.1.1-.1-.5-.5.1-.8-.1-.1 0-.1.1-.1.2 0-.1-.2-.1-.3 0v.1l-.2-.1-.8.8v.1h-.1l-.5.5c.2.1-.2.2.1.2-.1.1-.4.1-.5.2l-.1.1-.6.6c.1.4.5-.1.6.3l.1-.2.1.2c-.1.2-.4 0-.6.2-.3.2 0 .1 0 .1v-.2c-.1-.1-.2-.1-.4-.1l-.6.6v.1c0 .1 0 0 0 0s-.1 0 0 0l-2.6 2.6c.1 0 .1-.1.2-.1l-.2.2-2.8 2.8 2.4 1.4c.1 0 .2 0 .3-.1l-.1.1.1.1c.1 0 .2-.1.1-.2.1-.1.4-.2.3-.3.1-.2.2.2.2 0 .1.2.1.2 0 .3.2 0 .4.1.4.3h-.2l.1-.2c-.1-.1-.1.1-.2.1l-.1-.2c-.2 0-.4 0-.5.2l.1.1.2-.1c0 .1-.1.1-.1.2l.7.4.2.1.1-.1-.2-.1c.2-.2.2-.5.5-.6 0 0 0-.1-.1-.1h.2v.1c.2 0 .4-.1.5-.3l.4-.5h-.2c-.1 0 .2-.2.2-.1l.2-.3v-.1h.1l1.7-2.1c-.1.1-.2.3-.3.2v.1h-.3c-.1 0 .2-.4-.1-.3.2 0 0 .2-.1.1.1-.3.1-.5.4-.5h.6v.1l4.8-6c-.2-.1-.3.2-.4.1-.1-.2.3-.1.2-.2.2-.1.4-.2.5 0l.2.1.2.2-5.6 9.5h.1s0 .1-.1.2c-.1 0 0 0 0 0l.2.1h-.2v-.1-.1h-.1l-.4.6v.2-.1l-.4.6v.1l-.2.3c.2.1.3.2.5.2.1-.1.2-.3.2-.5h.3c-.1 0 .1.2.2.2.2.2 0 .3-.1.5l.5.1h.2v-.2c.3.1.3-.3.4-.3.1 0 .2.1.2.1l-.1-.1c.1 0 0 0 .1.1h-.2c.3 0 .3.4.6.4h.2c.1-.1.2-.1.3 0h1c.6-1.3 1.2-2.5 1.7-3.7 0 0-.1-.1 0-.1h.1c.2-.3.3-.7.5-1h-.2c.2 0 .1-.3.2-.2 0-.1-.1-.2-.2-.2 0 .1 0-.3.1-.4.1 0 .1 0 .2.1l-.2.2c.1 0 .2.1.2.1v-.1l.1-.2-.1-.1h.1l.2-.4h-.2v.1c-.1.1-.2-.1-.2 0h.1c.1-.1 0-.2-.1-.2 0 .2-.2 0-.3 0l-.2.2c-.3.1-.3-.1-.6 0 0 .1.1 0 .1 0-.2.1-.3.3-.6.2-.1 0-.3 0-.2.1-.4-.2.4-.3 0-.4 0 .1-.1 0-.1 0s-.1 0 0-.1.2-.1.2.1c.1-.1.1-.2.1-.3h-.1l.1-.1v.1c0-.1.4-.1.2-.3l.1.2c0-.1.2-.1.3-.1-.1 0 0-.1 0-.2.2.1.3-.2.5-.3 0-.2-.2 0-.2 0 .2-.1.1-.2.3-.2h-.1.2c.1-.1.3 0 .2-.2v.1c.1.1.1 0 .2 0l-.1-.1c.2.1-.1.3.2.3v-.2c0-.2.2 0 .3-.1 0 .2-.2.1-.1.3s.1 0 .1 0v.2l.1-.1c0 .2-.2.3-.3.4.1-.1.2-.1.2 0 .2-.4.3-.8.5-1.1v-.2l.1-.2v-.1c.1-.3.2-.6.4-.8h-.2c.1-.1.2-.1.2-.2.5-1.2.8-1.9.8-1.9l.8.4-.3.8v.1l-1.2 3.5.1.1c.2-.1-.1-.1 0-.2.2.2.5-.1.7.2-.1-.1 0-.1.1-.1h.1-.1l.1.1c-.1-.1-.2-.1-.2.1 0 .1.1.1.2.1h-.1l.2.2c-.1 0-.2-.1-.2.1h.1c-.1.1-.1.2-.2.2l-.1-.2c-.2.2-.2-.2-.4-.1l.1.2c-.2-.3-.4.1-.5 0l-.2.2-.5 1.4c.1 0 .1-.1.1-.1 0-.1.1-.1.2-.1l.1.2h-.1.1l-.4.1-1 2.8c.1.1.3-.2.4 0-.3 0-.3.5-.5.5.1 0 .1 0 .2.1v.2c-.1 0-.2 0-.3.1l-.1.3 1.8-1.4 2.6-2 .4-1.8h-.1c.1.4-.3 0-.2.4-.1-.2-.2.1-.3 0 0 .2-.3.4-.4.5-.1-.2-.3 0-.3-.2.3-.2.3-.5.6-.6-.1 0-.3-.1-.5 0l.1-.2c.2.1.2-.3.4-.4 0 .2.1.2.2.2l.2-.2c.1.2.2.1.4.1v.2l.2-.8-.1.3c-.2-.1-.2.1-.3 0 .2-.1-.1-.3.1-.3-.2 0-.2-.1-.3 0 0-.1-.1-.3.1-.3 0 0-.1 0-.1-.1h.3v.1c.2.1.1-.1.2-.2-.1.1-.1.3-.2.3.1 0 .3.1.5.1l.9-2.7zm2.4 3.5h.2-.2zm1.3.7c0-.2.2-.1.3-.2 0 .1-.1.1-.3.2zm.4-1.4zm.2.1c0-.2 0 0 .1-.2s-.2 0-.2 0 0-.2.1-.2v.1h.2c0 .1-.1.3-.2.3zm.2.1v-.1h.2c-.1-.1.1-.1-.1-.1.1-.1.2 0 .3 0 0 .2-.2.4-.4.2zm.4 1.5h-.1c0-.2.1 0 .1 0 .1-.1 0-.1 0 0zm.9-4.1l-.2-.2c.1.1.1-.1.3 0-.2.1.1.1 0 .2l-.1-.2V104.7h-.2l.2-.1zm-.6.6h.2c-.1 0-.1.1-.2 0zm.6 1.8h-.4c.1 0 .1.2.2.1h.1c-.2-.1-.2.3-.4.3 0-.1.1-.2.3-.3-.1 0-.2-.1-.2-.2l.5-.1s.2.1.2.2c-.2.2-.2-.1-.3 0zm.6-1.7c.1-.2.2.2.3.1-.2.1-.3-.2-.3-.1zm1.5-8.1c0 .1 0 0 0 0l-.1.1s-.1-.3-.2-.3c.1-.1.3.1.3.2zm-.4 5.7l-.1.1.1-.1zm-3.2-1s.3 0 .2-.2h.2c0 .2-.3.2-.4.2zm1.6-1.3c-.1 0 0-.1 0 0zm-.2-3.3l.3-.1-.1.1.2.2c0 .2-.2 0-.3.2 0-.1-.2-.1-.2-.2l.2-.1s0-.1-.1-.1zm0 3.1c.2.1 0 .1 0 .2h.1c-.1.1 0 .2-.2.1.1-.1-.1-.1-.1-.2l.2-.1zm-.5 1.4l-.1.2c-.1 0-.2 0-.2-.1h-.1c.1-.3.3 0 .4-.1-.1-.1-.1-.1-.2-.1l.1-.1s.2 0 .2.1l-.1.1zm-.8-3.5c.1-.2-.1-.1 0 0zm-.1-.8c-.2.2 0 .3 0 .4l-.2-.1.1-.1c0-.1-.1-.2-.2 0 0-.1.2-.2.3-.2zm-.3 1.5c-.1-.1 0-.1-.1-.2.2 0 0 .1.1.2zm-.9.8h-.1s.2-.1.1-.1c.2 0 0 0 0 .1zm0-.5s0 .2-.1.1 0-.1.1-.1zm.4-.1c.1 0 .1-.2.2 0-.1-.1-.2 0-.2 0zm.3.4zm0-.5c-.1-.1-.1-.1 0-.2v.2zm-.3-1.2c.1 0 .2-.1.2.1s-.1.1-.1.2c0-.1 0-.1.1-.2l-.2-.1h-.1.1zm0 .3h-.2c0-.1 0-.1.1-.1V98l.1.2zm-.2-.8h-.3l.1.1h-.2c0-.3.3-.2.4-.1zm-.6 2.6v.1h-.2l.2-.1zm-.8-2.5v.1h-.2l.2-.1zM211.1 85v-.1.1s0 .1 0 0zm.2 1.1s.1-.1.1 0c.1.1-.1 0-.1 0zm1.4-1.1c-.1-.1 0-.4.1-.2s-.1.1-.1.2zm.5.6s-.1-.1-.1-.2c.1.1.2.2.1.2.1.1 0 .1 0 0zm.9.9v0zm.6-.6c-.1 0 0-.1 0-.1h.1c0 .1-.1-.1-.1.1zm.5.4c0-.3-.2 0-.3-.2 0-.2.2.1.2-.1.1 0 .2 0 .3.2l.1.2c-.1 0-.2-.1-.3-.1zm.1-.6v.2c0-.1-.1-.1-.1 0 .1-.1-.1-.1-.1-.2v.1s-.1-.2-.1-.1c-.1.1 0-.2 0-.3 0-.1 0 .2.1.2v-.2c.1 0 .2.2.3.4.1 0-.1-.2 0-.2-.3-.1.1-.6-.2-.6.3 0 0 .7.4.6 0 .4-.2.1-.3.1zm1.5-.8l.1.2h-.1v-.2zm.1 2.2c-.1 0-.1.1-.2.1s.1-.2.2-.1zm-.2-.8c-.1-.1-.1-.1-.1-.3.1.1 0 .1.1.3zm-.1.8v-.2.2zm-.2-.7c0 .1 0 .3-.1.2 0-.1 0-.2.1-.2zm-.6.5s.2-.1.2 0c-.1.1-.1 0-.2 0zm.1-.5l.1.2h-.1s0 .1 0 0v-.2zm0-.6v.2-.2c.1.1.2-.3.3 0v.2c.1 0 .1-.1.1-.2 0 .1.1 0 .1.2v-.1.1s-.4-.1-.5-.2zm.4.5zm-.1 1.1c0-.2-.2 0-.1-.3 0-.3.1-.2.2-.3 0 .2.2-.1.2.2h-.1c-.1-.1-.1.1-.1.1s.2.1.1.1-.1.1-.2.2zm.2 1.2c-.1-.1 0-.1 0-.2s.1.2 0 .2zm.3-.1l-.1-.2c0 .2-.1 0-.1 0 0-.4.3 0 .4 0-.2.1-.2 0-.2.2zm.2-.1c0-.1-.2-.2-.1-.4 0 .2.2.2.1.4.1-.1.1-.1 0 0zm.3.6c0-.1 0-.1 0 0-.1-.1-.2-.1-.3-.2h.2c.1 0 .1-.1.1 0 .1.1.2.2 0 .2zm1.5.4c-.1 0-.1-.1 0 0-.1-.1-.1-.1 0 0 0 .1 0 0 0 0zm2.4-2.5v-.1.1c-.1 0-.1 0-.1-.1l.1.1zm-.1.3v0zm-.3-.8c0-.2-.1-.1-.1-.2s.1 0 .1.2zm-.6-.4c0 .1 0 .1 0 0l.1.1c.1.1.2.1.3 0-.1.1.1.2 0 .2s-.2-.1-.2 0 .2 0 .1.2c0-.1-.1-.1-.2-.1v.1-.1-.2s-.1 0-.1.1v0-.2h-.1v.1h-.1c0 .1.1 0 .1.1v.1l-.1-.2c0 .1-.2.1-.2-.1-.2.1.2.3 0 .3 0-.1-.1-.2 0-.4.2.1.3.1.4 0zm-.5-.7l.3.1h-.2c0 .2.2 0 .2.2l-.1-.1s-.1 0 0 .1-.1-.3-.1-.2l-.1-.1zm.1.7c0 .1-.2 0-.3-.1 0 0 .3 0 .3.1zm-.9 2.7c0-.1.1-.1.1 0 0 0 0 .1-.1 0zm.3.4c-.1 0-.1-.2-.1-.1-.1.1 0 .1 0 .2V88.9l.1.1c0 .1.1 0 0 .1zm1.2-1.9l-.1-.1h.2l-.1.1zm.2 2.3s0-.2 0 0c.2 0 0 0 0 0zm-.3-2.7c-.1.4-.1.1-.2.4-.1 0-.1 0-.1-.2 0 .1-.2-.2-.2 0 0-.1 0-.4-.1-.5-.1 0 0 .1 0 .2-.1-.1 0-.3-.1-.3s0 .2 0 .2h-.1v.1c-.2-.2-.2-.1-.5-.2.1-.5.5.1.7-.2.1.1 0 .2.1.3s.3.2.5.2c.1-.1.2-.1.4 0 .2.2-.1.2 0 .4-.1-.3-.3-.2-.4-.4zm.7 2.7c0-.2-.1 0 0 0-.1-.2.1-.2 0 0zm0-2.2c-.1 0-.1 0-.1-.1v-.1c.1-.1.2 0 .2 0l-.1.2zm.1 1.2c0-.1 0-.1 0 0l.1-.1.1.2-.2-.1zm.1-.9v.1-.1c0-.2.1 0 .2.2l-.2-.2zm.2.9c0 .1-.1 0-.1.1 0-.1 0-.1.1-.1l-.1-.1v-.1.1c0-.1.1-.1.1.1zm0-1.7v.2s-.1 0 0-.1c-.1-.1-.1-.2 0-.1zm.1.3V87v.1zm.2 1.8c.1 0 0 .1.1.2-.2-.1-.2-.2-.1-.2zm0-.3l-.1-.2h.1c0-.1 0-.2-.1-.1s.2-.1.2 0c-.2.1-.1.3-.1.3zm.1-1.7l.1.2-.1.1c-.2 0-.1-.3-.2-.4v.2c0-.2.1-.2.2-.3l.1.1h-.1v.1zm.4-.1l.1-.2-.1.2c.1 0 .1-.1 0 0zm2.4-1.9c-.1.1-.2 0-.2 0h.2zm-2.1 1.8l.1.1h-.1c-.1-.1.1-.1 0-.1zm.3 2.5c0 .2-.1-.1-.2 0 0-.1-.1-.2-.1-.3h.1v-.1l.2.1h-.1l.1.3zm0-2.4l-.1-.1v-.1l.1.2zm0-.2zm.2-.4l-.2-.1v.2c-.2.1-.1-.3-.2-.2 0-.2.2 0 .2-.2.1.1.2.1.2.1-.1 0 0 .1 0 .2zm.3.2zm.3.2l-.1-.2h.1v.2zm.2-.1c-.1-.1 0 .2-.1.2s0-.3.1-.2zm.1.4l.2-.1v.1h-.2zm.1-.4s0 .1 0 0l-.1-.2c0-.1.1.1.2.2s-.2.3-.1 0zm.7-.3l-.1-.2.2.2c-.1 0-.2-.3-.1 0zm.2-.3c-.1-.1.1-.1 0-.2-.1.1-.2 0-.2.3-.1-.3-.2-.1-.3-.3v.1c-.2.1-.2-.2-.3-.4h.1c0-.1-.1-.1-.1-.2 0 0 .1.1.1.2 0-.2.1 0 .2-.1s.1.4.2.3c.1-.1 0 0 0-.1s.2.3.2.1c0 .1 0 .1.1.2v.1zm.1-.8l-.1-.1h.3s-.3 0-.2.1zm.1-.4l.1-.1-.1.1zm.1 1.8c-.1-.1-.1-.2.1-.2-.2 0-.1.1-.2.2h.1zm.8 2.3l.1-.2c-.1 0 0 .1 0 .1.1.2-.1 0-.1.1zm.8-.3v-.2.2zm.2.7c.1-.1.1-.2.1-.1l-.1.1zm.2-.8V88l.1.2-.1.2zm1-1.1c0 .1 0 .2-.1.2 0 0 0-.1.1-.2 0-.1.1-.3.2-.4 0 .1.2.1.2.3-.2-.1-.4 0-.4.1zm.2 1.9c-.1 0-.1-.1 0-.2v.2c0-.1-.1-.1 0 0zm2.8-3.3c-.2.2 0 .1-.2 0h.2c-.2-.1 0-.1 0 0zm-.9 1.1c-.1.2.1.3.1.4-.4 0-.3-.3-.1-.4zm-.4-.3l-.1.1c0 .1 0 .1-.1.2l.1-.2-.2-.2c0 .1.1.1.3.1zm-1 .4v-.3V87.1zm.2 1.1h-.2l.2-.3c0 .1.1.2 0 .3zm.3-1.1l-.2.1.2-.1-.2-.2c.1.1.2.1.2.2 0 0-.1 0 0 0zm.2.3l.2-.3c0 .1 0 .1.1.2h-.2l-.1.1zm.8.5c0-.1 0-.1-.1-.2-.1 0-.1.1-.1.2-.1-.1-.3-.2-.4-.3.1.1.3.1.4.1.2 0 .2.1.2.2-.1.1-.1 0 0 0-.1 0-.1 0 0 0zm.2-1.9c0 .1.1 0 .2.1l-.1.2c-.2-.1-.3-.2-.1-.3zm.1.5c-.1-.1-.1-.1 0 0l.1-.2c0 .1 0 .2-.1.2 0 .1 0 0 0 0zm.1.4l.2-.4-.2.4zm.3-.4c.1-.2 0-.2-.2-.2.2-.2.4 0 .2.2zm1.2.2h-.2c-.1-.1.2 0 .2-.1v.1zm.3-.6c-.2 0-.4.5-.6.2.2 0 .5-.3.7-.5l-.1.3zm.4-.2l.1-.3v.1l-.1.2zm1.1-1.2s-.1-.1 0-.2 0 .2 0 .2zm-10.1 6.8c-.1.1-.1.1-.2 0l.2-.2c.1 0 .1.1 0 .2zm-3.2 1.7zm-.5 2.4v-.1.1c0-.1 0 0 0 0zm.5-.2v-.3s-.1 0-.1.1 0 .1.1.2c-.1-.1-.2-.1-.2-.1h.1V95c0 .2.1 0 .2.2-.1 0 0 .1-.1.2zm1.3-.7zm2.4-2.6c-.2.2 0-.1-.1-.2.2 0 0 .1.1.2zm.4-.4l-.2-.3c.1.1.1.1.2.1v.2zm2.6 9.8l-.1.1.1-.3v.2zm2-.4c-.1-.1-.2-.2 0-.3 0 .1.1 0 .2.1l-.2.2zm4.7 5.8c-.4.4 0-.5 0-.2-.1 0 .1.2 0 .2zm0-1.4c.2-.2.2 0 .4-.1l-.1-.1c.2.1.1-.3.3 0-.2 0-.2.5-.6.2zm1.2.4l.2-.2c-.1.1 0 .1.1.1-.1 0-.2 0-.3.1zm1.2-.7l.1-.2.1.2h-.2zm.5-.2l.1-.4.1.2-.2.2zm3-2.7l-.2.1-.1-.1h.3c0-.1 0-.3.2-.1l-.2.1zm-.2-1.8c.1 0 0-.1 0-.1s.2-.1.3-.1 0 .2.1.2c.2.1-.3 0-.4 0zm1.2-.2l-.3-.2c-.2 0 .1.2 0 .1s-.1-.2-.2-.1c.1-.1.3-.1.4-.1v.1h-.1c.1.1.2 0 .4.1l-.2.1zm1.4-.7h.1-.1zm.7-.6v-.2c-.2.1-.3.3-.3.5 0-.1-.1-.1-.2-.1s.1.1 0 .1c-.2 0-.4.1-.5.1s.1.3 0 .4c-.1.1-.2 0-.2.1-.2 0-.5 0-.6-.2h.1c-.1-.3-.2 0-.3 0v-.1h.2c0-.1 0-.2-.1-.4.1.2.3-.1.5-.1.1 0 0 .1.1.2s0-.2 0-.4c.3.1.3-.2.6 0v-.2c.1-.2.2.1.3-.1-.1-.1 0-.1-.1-.2.1 0 .3-.4.5-.2 0 .1-.1.2-.2 0 0 .1 0 .2.1.2s.4 0 .4-.3c.1.1.1.1.2 0s0 0-.1 0l.1-.1h.2v-.1.1s.2 0 .2.1c-.1.4-.5.7-.9.9zm1.2-.2c-.4-.3-.4.4-.8.2l.1-.1h-.1c.1-.1.3-.2.3-.2v.2c.1 0 .2-.2.4-.3 0 0 0 .1.1.2l-.2-.1c.3.2.3-.2.5 0-.2.1-.1 0-.3.1zm2.5-.9v-.1h.1l-.1.1zm.2 1.2zm-10.2 10.4c-.1 0-.1-.1 0-.2l.1-.1.1.2c-.1.1-.1.1-.2.1zm1.1-1.4l.2-.2.1.1-.3.1zm.2-.5c-.1 0 0-.1-.1-.2.3.1 0-.2.3-.1.2.3-.2 0-.2.3zm.5-.1c0-.1-.1-.1-.1-.2h.2v-.1l.3.2c-.2.1-.1.3-.3.2l-.1-.1c.1.1 0-.1 0 0zm.2 2l-.1-.2c.1-.2.1 0 .3-.1l-.2.3zm.2-.2h.1v.1l-.1-.1zm.1.9l.1-.1.2.2c-.1 0-.2-.2-.3-.1zm.2-.8c-.1-.1-.4-.2-.3-.3.2-.5.3.3.5.1l-.2.2zm.4-1.4c.1 0-.1-.1 0-.1 0 0 .2.1 0 .1zm0 1.9c.1 0 .1-.1.2-.1-.1 0-.1.2-.2.1zm.4-2.5c-.1.1-.2.2-.3.1 0 .1 0 .1.1.2-.1-.2-.2 0-.3.1-.1.1-.2.1-.3 0 .3-.1-.2-.4.2-.4.2-.2.4-.1.6 0h.2-.2zm1.5-3.7l.2.1h-.1s-.2-.1-.1-.1zm-.5 1.4h.3-.1l-.3-.1c-.2-.5.6-.1.5-.6l-.2.1c0-.1.1-.2.1-.2.2 0 .1.3.3.1 0-.1.2-.2-.1-.3.2-.1.3.2.4.3-.2.1 0 .2-.2.2 0-.1 0-.1.1-.1-.1-.2-.3-.1-.4 0l.1.1c-.2.2-.3.4-.5.5zm.5 3.5h-.2c.1 0 .1-.2.2-.1l.2.1c-.1-.1-.1.1-.2 0zm.4-.1l-.1-.2.2-.1c0 .1-.1.2-.1.3zm.7-.8s-.1 0-.1.1c0-.2-.1.1-.2-.1h.3zm-.2-3.2c.1 0 .1-.2.2-.1-.1.1-.2.1-.2.1zm.6 2.3c.1 0 .2-.2.2-.1s-.1.2-.2.1zm1.9-6.2v.3h-.1c-.4.1-.6.7-.9.5.3-.1.7-.5 1-.8zm-1.1 1.8c-.2 0-.2-.4.1-.3.2 0-.2.1-.1.3zm.4-.7h-.2c-.1-.1.3-.1.3-.2l-.1.2zm.7.5s-.2 0-.2-.1.3 0 .3.1c.1.1 0 .1-.1 0zm.5-1.6l.2-.3v.1l-.2.2zm.1-.4c-.1 0 0-.1.1-.2l-.1.2zm1.1 2.1l.1.1c-.1.2-.2 0-.1-.1zm0 4h-.3c0-.1.2-.1.3 0zm-.9 3l.1.1h-.1l-.2-.1c.1 0 .2.2.2 0zm-.4-2.4h.2-.2zm-2.1 5.3c-.2 0 .1-.2 0-.2v.2zm.1-.1c0-.1.1-.1.2-.1 0 0-.1.2-.2.1zm.2.2zm.1-.2c.2-.1-.1-.2 0-.3l.2.2s.1-.1.1-.2l-.1-.1c.1 0 .2.2.3 0v.2c-.3.1-.4.4-.5.2zm.3-1.6c-.1 0-.3-.2-.3 0-.1-.1.1-.2.1-.3v-.1.1h.2c.2 0 .1.2 0 .3zm.2 1.3h.1-.1zm.3.7h.1v.1l-.1-.1zm1 .2c-.3-.3-.3.3-.5.1 0-.2-.1-.1.1-.2v-.1s-.1-.1 0-.2.1-.2.2-.4h-.1-.1.1s-.1-.2 0-.2c-.1.1-.3 0-.4-.1-.2-.1-.2.2-.2.1v-.2l-.2.1c.1-.2.4-.2.5-.3v.2l.3.1-.1-.1h.2l-.1.1c.1 0 .2 0 .2-.1.1.1.1.2.2.5l-.1-.2c-.1 0-.2-.2-.2 0 .2 0 .2.2.2.3-.4-.4-.1.2-.3.3.1 0 .2-.1.3-.1l.1.1c.5.1-.2-.2.1-.4.2 0 .1.3.3.3.2 0 .1-.3.3-.2-.3.3-.7.3-.8.6zm.7-.7c-.1 0-.2 0-.2-.1l.2-.1c0 .1-.2.1 0 .2zm1.1-2.6l-.1-.1.1.1c.1 0 0-.1 0 0zm.1-.2v-.3l.2.2c-.1 0-.2 0-.2.1zm.2-.3c0-.1.2-.1.3 0 0 .1-.3-.2-.3 0zm.2-.8h0c.1.2 0 0 0 0zm0 .9s.1-.2.2-.1c-.1 0-.2.1-.2.1zm.4-1c0-.1-.1-.2 0-.2s0 .1 0 .2zm-1-.1c.1-.1 0-.2 0-.3.1.1.2 0 .3.1v-.1c.2-.1.5-.3.8-.2l-.2.1c-.3.1-.5.2-.7.4.1.1.2 0 .3.2-.1.1-.4 0-.5.1-.1.1.1.1.2.1s-.2.3-.4.1.3-.2 0-.2c.1 0 .2 0 .3-.2s-.2-.2-.2-.1c-.1.1-.1.2-.2.2s0-.1 0-.2c-.1.2-.2.2-.2.3-.2-.1-.2.2-.4 0l.1.1c.2 0 .4-.4.7-.4 0-.1-.1-.3 0-.3 0 .1 0 .2.1.3zm1.7 4.5c-.1 0-.2 0-.2-.1.2-.2.3.1.2.1zm1-2.8h-.1.1zm.5-1h.1v.1l-.1-.1zm.2 2.5h-.2.2zm.1-2.6c.1-.1.1 0 .1.1.1.1-.1.1-.1-.1zm.7-1c.1 0 0 .1.1.2s-.2 0-.2-.1.1 0 .1 0v-.1zm0 2.8l.1-.1s-.1.2-.2.2l.1-.1zm1.5-1.1c-.1 0-.1.1-.2.1v-.2c0 .2.1.1.2.2v-.1zm1.2-7.2c-.1 0-.1-.1-.1-.2s-.1.2 0 .3l.1-.1zm.5-.3c0 .1-.1 0-.2 0s0 .2.1.1l.1-.1zm-.2-.3l-.1.2-.1-.1.2-.1zm.1-.6h-.2.2c.1 0 .1 0 .1-.1 0 .2-.1.2-.2.2l.1-.1zm.4-.7c.1.1.1 0 .1.1s-.2-.1-.2 0c-.1.1.1.1 0 .2s-.1-.2 0-.2l-.1-.1h.2zm-.3 0c-.1 0-.1.1-.2.1.1-.1.2-.1.2-.1zm-1.8 1c.1-.1.1-.2.1-.3.1-.1.1 0 .2 0l.1-.1s0 .1-.1.1c.2 0 .2.2.2.3l.2-.1-.1-.2.2.1c0-.1-.1-.2-.2-.1l.1-.2c.1.3.3 0 .5.1 0 0-.1 0 0-.1s.1.2.3.1c-.1-.2.2-.1 0-.3.2-.1 0 .2.2.2s0-.1 0-.1h.2c.1 0 0-.1-.1-.1h.4c0 .1 0 .2.1.3-.2 0-.4 0-.5.2 0 0 0 .1.1.1-.3-.1-.2.2-.4.3-.1-.1-.1 0-.2 0s.2.2.3.3c.1-.1.1-.1.2 0l-.2.2c-.1-.3-.5.1-.7.1.1-.1.3 0 .2-.3h.2c0-.1-.1-.1-.2-.3-.1-.1 0 .2-.1.2v-.1l-.2.1c-.2-.3-.6-.1-.7-.2-.3 0-.2-.1-.1-.2zm-2.5-1.4c-.2 0-.2 0-.3-.2.1.1.1.2.3.2zm-.4.7c0-.1-.1-.2 0-.2h.1c-.1.1 0 .2-.1.2zm.2-3.3l-.1.1s0-.1.1-.1zm-.1 1.4l-.2.1-.1-.1h.3zm-1.7-.4l-.1.2.1-.2-.2.1V98c0 .3 0 0 .2.1zm-.2.3v.1c-.1 0-.2.3-.4.1.1 0 .2-.3.4-.2zm-.6-.5l-.1-.2c-.4-.3.2 0 .3-.3 0 .2.2.1.2 0s.3.2.1.2c.1-.1-.1-.1-.2-.1s0 .1 0 .2-.2.3-.3.2zm-.2 3.3c-.1 0-.1-.1 0 0l.1-.2c0 .1-.3.1-.1.2zm.7-.7c0 .1 0 .1.1.2s-.2 0-.2.1c.1-.2-.1-.1-.3-.1l.1.1c-.1 0-.2-.1-.2 0 .1 0 0-.2-.1-.2.1 0 .1.2.3 0-.2-.1 0-.1-.1-.2.2-.1.5 0 .7.1.1-.1-.2-.1 0-.2-.5.1-.2-.6-.6-.3.4-.3.4.3.6.3l.2-.1c.1.2-.3.2-.5.3zm.7-1.9c0-.3-.4.1-.3-.1 0 0-.1.1-.1 0 .3 0 0-.3.2-.3s.2-.1.3 0c.1 0 .1-.1.2-.2-.1.2.1 0 .2.1V98c.1 0 .2.1.3.1h-.2c.2.3.2 0 .4.3l-.2-.1v.2c-.1 0-.2-.1-.1-.2-.5 0-.4.3-.7.3zm.1 1.4c0 .1.1.1.1.2l-.1-.2c.2 0 .2-.5.4-.3-.1 0-.1.1 0 .2.1-.1 0-.2.1-.3 0 .1.2-.1.2.1h-.1v.1c-.2.1-.3.3-.6.2zm.4.7s.1 0 0 0c.1-.1 0-.1 0-.2h.3c0 .1-.1 0-.2 0-.1.1 0 .3-.1.2zm.2 5h.1v.3l-.1-.3zm-.1-4.6c.1 0 .2-.3.4-.2-.2.2-.3.2-.4.2zm.4-.9l.1-.2-.1.2c.1 0 0 0 0 0zm.2 4s-.1-.1 0 0h.2-.2zm.4-3.3c-.2 0-.2.2-.2.3-.1-.2-.3.1-.3-.1s.1-.3.1-.4c.1.2.2-.3.4 0l-.1.1.1.1c-.1 0-.1.2-.1.2-.1-.1.2-.2.1-.2zm.2-.3l-.1-.2c.1 0 .1.1.1.2zm.2-.1c-.1-.2.2-.2.3-.2-.2 0-.2.2-.3.2zm.3 1.6h-.2c0-.1.1-.2.1-.2s.2.1.1.2zm.2-.3l-.2-.1c0 .2-.1.1-.2.1-.2-.4.4-.2.5-.3 0 .2-.1.1-.1.3zm.4-.4c0-.1-.3-.1-.3-.2.1.2.2 0 .3.2zm.2.4c.1 0 .2-.1.3-.2h-.1.1c.1 0 .1-.2.2-.1-.2.1.2.1 0 .2 0-.1-.1 0-.2 0s-.2.2-.3.1zm.1 4.6c0 .1-.2 0-.3 0-.1-.1-.1-.1-.2 0h-.1l-.1.1c0-.3.3-.2.6-.3 0-.1 0-.2-.1-.2s.2.1.2.2c.1 0-.1.1 0 .2zm.1-.5l.3.1v.1l-.3-.2zm.4.8h-.2.2zm.1-1l-.1-.2c.1.1.1.1.1.2zm-.5-2.9c-.1-.1-.1.2-.1.1l-.1-.1.6-.6c.2 0 .3 0 .5-.1.2.1.1-.3.3-.3-.1.1.1.2.3.1 0-.2.2 0 .1-.2l.2.2c-.1.1-.4 0-.6.3.1.1.1 0 .2-.1s-.2.1 0 .2c-.1 0-.2 0-.3.1l-.1-.2c-.3.3-.5.6-1 .6zm1.6 1.4h-.2v-.2s0 .3.2.2zm-.6.4s.1 0 0 0c.1 0 .1.1 0 0zm.1.1l-.2.2c0-.2.1-.1.2-.2zm-.4.9l.1-.1s0 .1.1.2c-.1-.1-.2-.1-.2-.1zm.6-.4c-.1.2-.2.1-.3.3l-.1-.2c.2-.1.2-.4.5-.4.1.2.1-.1.2 0l.1.2c-.3 0-.4.1-.4.1z"/><path class="st0" d="M221.8 84.4c-.1 0 0 .1 0 0zM245.7 99.6s0-.1-.1-.1h-.2l-.2.2.1.1c.1-.3.3-.2.4-.2zM217.9 91.6zM243.3 101.8zM253.6 86.2c0-.1 0-.1-.1-.2 0 .1 0 .2.1.2zM220.5 91.6zM217.7 91.7c-.1 0 0 0 0 0zM220.6 91.4zM220.5 91.6c0-.1.1-.1.1-.2s0 0-.1 0h-.1c0 .1.1.2.1.2zM219.7 91.5zM220.7 91.4zM219.7 89.6zM220.2 91.6v.2s-.2.2-.2.1c-.1.1-.3.1-.2.3 0 .2.2.1.3.2l.3-.3-.1-.2c.1 0 .1 0 .1-.1l-.2-.2zM218.1 91.6c-.1 0 0 .1 0 0zM261.4 121.7l.1-.2c-.1.1.1 0 .1.1.1-.1.1 0 .1 0-.1-.4-.3-.8-.6-1.1-.2-.2-.3-.4-.5-.7h-.1c0 .1.1.1.1.1h.1c-.2.2 0 .3-.2.4.1-.2.1-.4 0-.6 0 0 .1 0 .1-.1-.3-.6 0-.8 0-.8l2.2-3.9-1.6-1.3c0 .1 0 .1-.1.2s.1.3.2.4c-.2 0-.2.1-.3.2-.1.1 0 .2.1.2l-.1.2c.1 0 .2-.1.2 0l-.1.2v-.1l-.1.1h-.2l.2-.2-.2-.2c-.2-.2.1-.5.1-.7h-.1l.1-.2c0-.1.1-.1.2-.1l-.2-.2h-.1v-.1l-.4-.3-.1.4h.1-.1l.1.1.1-.1-.1.1c.1 0 .2.1.3.1.1-.1 0 0 0 0h.1-.2c.1.1 0 .4-.1.5-.1-.1-.3-.3-.2-.6h-.1c.1 0 .1-.2.1-.2-.1.3-.4.9-.8 1.9l-.2.5c-1.1 2.5-1.4 2.6-1.4 2.6l-1-.1c.1.2.1.4.1.6.1 0 .1-.2.2-.2 0 .2 0 .2-.2.4.1 0 .1-.1.2-.1-.1.1-.1.3-.2.3-.1.1 0-.2.1-.1h-.1c-.1-.3-.1-.6-.2-.9l-1.2-.1s-.1.1-.2.1l.1-.1-.7-.1c-1.4-.2-1.1.3-1 1 .1.6.7 3.3.7 3.3l1.1-2.3c.2.1.5.1.7.1 0-.1 0-.1.1-.1-.1 0 0 .1 0 .1h.6c-2.1 3.4-2.8 4.7-2.4 5.4.9.9 2.2 1.3 3.4 1.1-.3-.2-.6-.5-.8-.8-.6-.4-.7-1.2-.3-1.8 0-.1.1-.1.1-.1l1.8-2.5.5.7-1 2.5s.2-.1 1.8-1.1c0-.1 0-.2.1-.2v.2c.5-.3.9-.6 1.3-1 .1-.2.2-.5.3-.7 0 .1.1 0 .1.1v-.2c-.3.2-.4.1-.5 0zm.7-5.7c.2 0 .1.2 0 .3v-.3zm-.3-1.3c.1 0 0 .1 0 .1h.2c0 .1 0 .2-.2.1 0 0 .1 0 .1-.1s-.2.2-.3.1c-.1-.1.1-.2.2-.2zm-.2.5c0-.2.2-.1.2 0h-.2l.2.1h-.3c-.1-.1.2.1.1-.1zm-.6-.1c0 .1.2.1.1.3 0-.1-.1 0-.1-.2v-.1zm-3.4 7.5c.1-.1-.1-.2.1-.2 0 .1 0 .1-.1.2zm.9-4.8l.1-.2h.1l-.2.2zm.3-.8c.1-.1.1-.1.1-.2.1-.1 0 .1.1.1h.1l-.1.1c.1-.2 0 .2-.2 0zm.4 2s0-.2.1-.2l-.1.2zm.2-.9c-.2-.1 0-.3-.2-.4 0-.2.2 0 .2-.2l.1.2h-.2c0 .2.1.1.1.4zm1.1-3.3l-.1.1c.2 0 0 .2.2.2l-.1.1v-.1h-.1c0 .1 0 .2.1.2-.1 0-.2-.2-.1-.3h-.2c.2 0 .1-.2.3-.2zm-.2 1.2c.1-.2.1-.4.3-.5-.1.2.2.3 0 .4 0-.1-.1 0-.2-.1l-.1.2zm1.1 5.2c.1 0 .2.1.1.2s-.2-.1-.1-.2zM272.6 115.5zM272.7 115.4zM276.1 120.8l-.2.1c0 .1-.1.1-.1.2l.3-.3c-.1.1-.1 0 0 0zM275.6 122.9zM272.9 115.2zM273.8 114.3c.1 0 .2 0 .2-.2l-.2.2zM276.6 120.8h-.1v.1h.2v-.1c0-.1-.1-.1-.2-.1l-.2.1c.1-.1.2-.1.3 0zM276.3 122zM276.4 121.5zM273.7 122.1zM273.2 114.9l-.2.1c.1 0 .2 0 .2-.1zM276.2 122.4zM276.8 122.7l-.1-.1c0-.1-.1-.2-.1-.3-.2.2-.3.6-.2.9l.2-.2h.1v-.1l.1-.2zM276.9 120.8h-.1.1z"/><path class="st0" d="M278.2 123.5h-.2l-.2.1c.1 0 .1-.1 0-.1-.2 0-.3-.1-.5-.2-.1.1-.1.2-.4.3.1-.1.1-.2 0-.3.1-.1 0-.1-.1-.2-.1.1-.2.2-.2.4l.1.2c-.1 0-.1 0-.1.1s.1 0 .1 0c0 .2-.2.2-.4.1.1-.1.1-.2 0-.3h-.2c.1 0 .2-.2.1-.3-.2.1-.1 0-.3-.1 0-.1 0-.2.1-.3s0 0 0-.1.1-.2.1-.3c-.1.1-.3.2-.3.4 0 0 .1-.3 0-.2 0-.2.2-.4.1-.5-.1-.1 0-.1 0-.1-.1.4-.1.7-.1 1.1-.1 0-.1-.1-.2-.1l-.1-.1h.1c-.1-.2-.1-.3-.1-.5 0 0-.1 0-.1.1h.1l-.1.2-.1-.1c-.1.2-.1.5-.2.7l.3.2.1-.1s0-.1.1-.1l-.1.1c0 .1.2 0 .2.2h-.1c.4.2.9.5 1.4.8 1.5.7 1.4-.4 1.2-1zm-2.4-.5l.2-.1c0 .1-.2.2-.2.1zm2 1.5l.1-.2-.1.2zM278.7 122.1c-.1.1-.1.1 0 0 0 .1 0 .1 0 0z"/><path class="st0" d="M280.8 124.2c-.3-.3-.5-.7-.7-1.1h-.1.1c-.1 0-.1.1-.1.1s.2-.2 0-.2l-.3-.6v.1-.1l-.4-.7v.4h-.2s0 .1.1.1c0 .2-.3.1-.4.1-.1.1 0 .1 0 .1h-.1c0 .1.1 0 .1 0-.1 0-.2.1-.2.1h.1v.1c-.2 0-.2-.2-.1-.3 0-.1.1-.6-.1-.8-.1-.1-.2-.2-.3-.2h-.1v-.1l-.3-.1c0 .3.1.5.2.8.2.2.4.5.8.9l.1.1.1.1h.1l-.1.1c.8 1 1.1 1.7.3 2.3-.2.2-.5.3-.7.3l-.1.1v-.1h-.2c-.2 0-.4 0-.5-.1 0 0-.1 1.1 0 1.1h.2c0-.1-.1-.2 0-.3-.1 0 0 .2 0 .3h.3c0-.1 0-.2.1-.2 0 0 .1 0 .2.1v.1c.6-.1 1.6-.3 2.7-.4 1.8-.2.3-1.9.3-1.9-.4-.1-.6-.1-.8-.2zm-2.7-2.5l-.1-.4h-.3l.2-.1.1.1v-.1.1l.1.4zm.8 1c-.1 0 0-.2-.1-.2l.1.2.1-.2-.1.2zm-.6 3.4l-.1-.3c0-.1.2-.1.2-.1-.1.1-.1.2-.1.4zm1.6-1.4c-.1-.1 0-.3 0-.5 0 .1-.1.3 0 .5zm0-.9l-.1-.1.1-.1v.2zm-.1-.6l-.1.1.1-.1zm-.2-.3c-.2-.1.1-.2 0-.3.3 0 0 .1 0 .3zm.1 1.9h.3v.2c-.1-.1-.2-.2-.3-.2zM276.4 117.3c-.1.2.2.2 0 .4.1 0 0 .2.2.3h.2c-.1.1.1.3.1.4 0 .1-.1.1-.2.1s.1.1.2 0l-.2.1h.1v.2c.2 0 .1-.2.1-.3h.2l.1.4.1-.3c.2.1.3 0 .4 0s-.2.2-.1.2h-.2c.3.2.2.5.2.7l-.2.2c0 .3.2.5-.1.8v.4h.1l-.1-.2c.2-.2.4-.3.6-.3v-.4h.2v-.1l-.2.1c.1-.1.2-.1.3-.2l-.1-.1c.1-.1.1 0 .2 0h-.1c.1 0 .1.1.2 0l-.1.1c.3-.1.6-.3.8 0 0-.1.2-.1.3-.1h-.2c.2 0 .3-.2.3-.3l-.2.1c0-.1.2-.2.2-.3.4 0 0 .4.3.4.1-.1.1-.3.1-.3-.1 0-.1-.1-.2-.1h-.1.1c.2-.1.2-.3.3-.4.1-.1.1-.3.1-.4 0-.2-.1-.3-.1-.3l.1.1.1-.1c0 .2.1.4 0 .5h.1c.2.3-.2.3-.1.6.2.3-.3.3-.4.6.1.1.2-.1.2 0s-.1.1-.1.2c.1 0 .2-.1.3-.2h-.1c.1-.2.2-.1.3-.1.1 0 .2 0 .3.1 0 .2-.2 0-.3-.1-.1 0-.2 0-.3.1.5.3.9-.2 1.3-.2v-.5c0-1 .3-1.9-1-1.4-.3.1-.7.3-1 .5h.1c-.1 0-.1.1-.1.2l-.1-.2-.5.2c-.3.1-.6.2-.9.2h-.1l-.2-.1h-.1c-.1-.1-.2-.1-.2-.2-.3-.3-.5-.6-.7-.9 0 0 0-.1-.1-.1h-.1c-.1.1.1.2-.1.4.3-.3.3-.5.1-.4zm3.1 1.7c0 .1.1 0 .2 0s-.2 0-.2.1c-.1 0-.1 0 0-.1zm-.8 0c.1 0 0-.2.2-.1l-.2.1zm.5.1c-.1.1-.2-.1-.3-.1.2-.2.1 0 .3-.1 0 .1-.1.2 0 .2zm-.2-.6s.1 0 0 0c.1-.1.1-.1 0 0 .1-.1.2 0 .2.1h-.2s.2 0 .1.2c-.2.1-.3-.2-.4 0 0-.3.4-.1.3-.3zm-.8.2c0 .1-.1 0-.1 0-.1 0 0 .1.1 0zm-.4 1.4c.1 0 0 .1.1 0s-.2.2-.1 0zm-.1-1.8h-.1v-.1l.1.1zm-.7-.8v.2l-.1.1.1-.3zM281 122.8c.4-.1.5-1.4.6-2.5 0-.1-.1-.1-.2 0-.4.3-.6.7-.5 1.2.1-.2.4-.5.5-.2-.1.2-.4.3-.4.5-.2-.3.3-.2 0-.4-.1 0-.1.2-.2.2 0-.2-.2-.2-.2-.3h-.1c.2.3.2.6.1 1-.1 0-.2.5.4.5zm.4-2c-.1 0-.2 0-.2-.1l.2-.1c.1.1 0 .1 0 .2zM275.1 117.5c0-.1 0-.2.1-.2l-.2-.1c.4-.1.1-.5.4-.7-.2-.2-.3.5-.7.6h.1c0-.1.1.3-.2.2.1-.1.1-.1 0-.2l.1-.2c-.2.1-.1-.2-.4-.1-.1-.2-.2-.4-.3-.5h-.2c0-.1.2-.2 0-.3.2-.2.2.1.5 0l-.2.3s.4 0 .5.2l.1.3c0-.2.2 0 .2-.1s-.1 0-.1 0c.2-.1 0-.4.1-.5l.2-.1c.2.1-.1.3-.1.4l.1.1c.2-.1.3-.2.5-.4h-.3c.2-.3-.4-.3-.2-.6 0 .1.1.1.2.1-.2 0 0-.3-.2-.4 0 .1 0 .1-.1.1l.1-.1h-.3l.1-.1c.1 0 .2-.2.2-.3.2 0 .2-.1.2-.1h-.3l.1-.2h-.2.1c.1-.1-.1-.2-.3-.2l.2-.3h-.2l.1-.3h.2c-.1-.1-.1-.2 0-.3l-.1-.1h-.1v.2h-.1c.1 0 0-.1 0-.2l-.7.7c.1.1.2.2.2.4-.3.1.2.1 0 .3h-.2c0 .1.2.1.2.2s-.1 0-.2-.1 0 .3.1.3h.2c0 .1-.1 0-.2.1.3.1-.1.2.1.3h-.2l.1.1c-.1 0-.1-.1-.1-.1l.1-.1c-.1-.1-.1.1-.2 0 .2-.2.1-.3.1-.5h-.2s.1 0 0-.1h-.1c0-.1.2 0 .1-.1s-.2 0-.2 0 .4-.1.1-.2l-.1.1v-.1l-.3.3c.3.1-.3.2 0 .3v-.1.1c-.1 0-.2.1-.4 0-.1.1 0 .1.1.1-.1 0-.2.1-.3.1 0 0 .1.1.1.2l.2.1s0-.1.1-.1.2.2.1.3c.6.6 1.2 1.2 1.6 1.9h.2c-.1-.1.1-.1.2-.2h-.2c-.2-.2 0-.1.1-.1zm-.8-2.3c.1-.2.1 0 .2 0l-.2.2c0-.1.2-.2 0-.2zM268.7 124.1l-.1.2h.1v-.2zM267.1 125.8c-.2.2 0 .3-.1.4l.2.2.5-.6c-.3 0-.7-.3-.6 0zM260.5 112.4c.1 0 .1 0 0 0zM271.5 121.4v-.2h-.1l-.3-1c-.1 0-.1-.1 0-.1l-.1-.2v-.2h-.2c0-.1-.1-.1-.2-.2.2 0 .1-.1.2-.3-.2.1-.4.3-.4.5.1 0 0 .2 0 .2s.2-.1.1 0c0 .1.3.2 0 .4h.1-.1c0 .1.1.2.2.1-.1.3.2.2.1.5h.1c-.2 0 0 .3-.2.4h.1s-.3-.1-.2-.2c-.1 0-.3.2-.2.3 0-.1-.2 0-.3.1-.1.1.3 0 .2.2.1 0 .3 0 .2-.2.2.1-.1.3.2.3.1.2-.3.1-.2.3h.1v.1c0 .1-.2 0-.2-.1.4-.1-.2-.2 0-.4-.1 0-.5.1-.3.3h.2-.1v.2h.1v.2c0 .1 0-.1-.1-.1s-.2.1-.2.1 0-.2-.1-.2l.2.1v-.2h-.2l.2.8c0-.1 0-.3-.1-.3.1 0 .2 0 .3.1l.1-.1s-.1-.1.1-.1v.1l.2-.2h-.1l.2-.1.3-.3.4-.4c.2 0 .1-.2 0-.2zm-.3-.8c0 .1-.2.1-.1.2l-.1-.1.2-.1zm-.5 1h.1s0 .1-.1 0zm.2-.5h.1c0-.1.1-.1.1-.1.1 0 .2.2.1.2-.1.1-.1 0-.1 0v-.2h-.1c0 .1 0 .1-.1.1zm.4.7c-.1 0-.1 0 0 0-.1-.1-.2-.1-.2-.1v-.4c.2-.1.1.2.2.1-.1 0-.1.1-.1.1h.1v.3z"/><path class="st0" d="M270.1 121.3c-.1-.1.1-.2.1-.3 0-.1-.1-.3-.3-.3.4 0-.1-.3.1-.3s-.1-.1-.2-.1c-.2-.3 0-.3-.2-.5.1 0-.2-.2.1-.4 0-.1-.2-.2-.2-.3h-.1c.1-.1.3 0 .3 0s-.2-.2-.1-.3l.3.1c.1-.1.3-.1.3-.3.1.1.3 0 .2.2.1 0 .2-.1.2-.2v-.1c0-.1-.2 0-.3 0 .1-.1.3-.2.2-.3-.1.1-.2.1-.2.2.1.1.1 0 .1 0h-.2c-.1-.1-.1-.2.1-.3-.1-.1-.3 0-.2.1l-.1-.1-.2.1c-.3-.2-.1-.3-.4-.4-.1.2 0 .2-.1.3l-.1-.1c-.1 0 .1.2-.1.2l.9 3.5c.1.1-.1-.1.1-.4zm-.4-2.7c.2-.1 0 .3.3.2l-.2.1c0 .1-.1-.1-.1-.3z"/><path class="st0" d="M273.1 117.6c0 .4-.4.6-.4 1.1-.2-.2.2-.5-.1-.6.1-.1.1-.4.4-.4.1-.2-.2-.2-.1-.4h-.2.1c.1 0-.1-.2.1-.3v-.1c-.1 0-.2.1-.2.1.1 0 .1-.1.1-.2l-.4-.8c0-.1-.1-.2-.3-.2 0-.1.1-.2.1-.3l-.2-.5.2-.2c0-.1-.1-.1-.2-.2-.2.1.1.1 0 .2h-.2v-.3h.1c.1-.2.1-.4-.1-.4h.4c.1-.3-.2 0-.2-.3l-.2.2.1-.1h-.1s.1-.1.1-.2c-.1.1-.1 0-.2-.1h-.2c-.2.2.2.1.1.2h.2l-.1.1s-.1 0-.1-.1-.1.2 0 .2-.1.1-.2.1v-.1s-.1.1-.2-.1c-.2.1 0 .2 0 .3 0 .1-.2.3-.3.4v-.1c.1-.1.1-.3.3-.3l-.2-.2-.1.1-.1-.1s.1 0 .1-.1l.2.1.1-.4h.1c.2-.1.1-.2 0-.3-.1-.1 0 0 0-.1v.1h.2s0-.1-.1-.1c.1-.2.5-.1.5-.2.2 0-.1.2 0 .3h.1v.1s.3-.3.1-.3c.1-.2.4-.1.5-.2.1-.2-.1.2.1.1v-.6c.1-.1.2.1.2 0 .1-.1 0-.4-.2-.5 0-.2.1-.2.3-.2.2 0-.2 0-.1.1s.3-.1.3-.1c0 .2-.4.1-.3.3s.2.5.2.7c.1.2-.1.2-.2.3.3.3.1.7.2 1l1.4-1.4-6.7-18.9-7.3 18.5.2.2c.1 0 .2 0 .2-.1h-.2c.3-.2-.2-.4.1-.5h-.1l.1-.1c0 .1 0 .1.1.1v.1h.1c-.2.1 0 .4-.2.4l.1.4 1.3 1.1v-.5h.1c-.1.2 0 .1-.1.2l.1.1c.1 0 0-.1.1-.1v.3h.1l-.2.2 1.4 1.2-1.6 3.5.1-.1h.1l-.2.1-.6 1.2.8 1.1h.2c0 .1 0 0-.1 0l.1.2.1.1 1.9-4.4c-.1.1-.2.2-.4.3 0-.1.2-.2.1-.3 0-.2.2-.1.3-.1v-.1l.2-.4.4.5-1.8 4.9 1 1.3.6-1.6.1-.1v-.1c0-.1-.3 0-.3-.2.1 0 .1-.1.1-.1-.1 0-.2.1-.3.1.1.2-.1.4 0 .6-.1 0-.2 0-.1-.1s-.1-.3.1-.4c-.2 0-.1-.2-.1-.3-.1-.1-.3-.2-.4 0l-.1-.1c.3.1.2-.3.4-.3-.3-.2 0-.3-.1-.5s.2-.2.2-.3c0 .1.2 0 .2 0s-.2.2-.2.3c0 .2.2.2.2 0l.2-.1v.1c.1 0 .1 0 .2-.1-.1 0-.2-.2-.2 0 .1-.3.3 0 .5-.2l.1.1c.1-.1.2-.1.2-.2.2.3-.5.2-.4.6.1 0 .1 0 .1-.1l-.1.2c.1 0 .1-.1.2-.1v.1c.1 0 .1.1.2.2l1-2.6.4.3-1.6 5.6.9 1.2c.1-.1.2-.1 0-.1h.3c-.1 0-.1 0-.1.1h.3c.1-.1.2 0 .3-.1 0-.1 0-.1.1-.2l-.3.1c.1-.1-.2-.1 0-.2 0-.1-.2 0-.2 0v-.1c-.1 0-.2.2-.3.1.3 0 .2-.3.4-.3-.1 0-.1-.2-.1-.3.4 0-.1.3.2.3 0-.1.1-.2 0-.3-.1-.1.3.1.3-.1 0 0 .1.1-.1.2l.3.1c0 .2.1.3 0 .4.1 0 .2 0 .4-.1 0-.1.1-.1.1-.1 0-.1-.1-.1-.2 0 .1-.2 0-.1-.1-.2.1.1.2 0 .2 0 .3-.2 0-.3.2-.5.1-.1 0-.2 0-.3h.2c.1-.1.1-.2 0-.3 0 0 0 .2-.1.1v-.2l.1.1c.4-.3-.1-.6.1-.9.1-.1.1 0 .2-.1 0 .2-.2.3 0 .5.1-.1.3 0 .2-.1h-.2c.1-.1.2 0 .2-.2-.1 0-.1-.1-.3 0l.2-.2c.1 0-.1 0-.2-.1h.2v-.2c-.1.2-.3 0-.3.2v-.1.1c.1 0 .1 0 .2-.1.3 0 0-.3 0-.3h-.1-.1.1c.1 0 0-.3.2-.2v-.3c.2 0 0 .2.1.2.1-.1.1-.3 0-.5 0 0 .1 0 .2-.1v-.2c0 .1-.1.1-.2.1.1-.1.1-.2.2-.2l-.3-1.3h-.1c-.1-.1-.1-.2-.1-.3h-.4c.1 0 .3-.1.4-.1l-.1-.4.6-.4.1.5s.1-.1 0-.1l.2.1c.1-.4-.1-.5-.3-.8.1-.1.2 0 .2-.1h-.1c0-.1.2-.1.3-.2-.2-.2.2-.1 0-.3 0 0-.2.1-.2 0-.1-.1.2-.1.1-.3-.2-.3.5-.4 0-.8l.2-.1c0-.1.1-.2-.1-.2l-.3.2c0-.2.1-.5 0-.7l.1.1c.1-.1.4-.2.3-.3h-.2s-.1.2 0 .1c-.1.1 0-.1-.2 0l.2-.3c0-.1-.2 0-.1 0-.2-.1.2-.2.1-.3 0 .2.3.3.4.5.1 0 .1-.1.1-.2s.1 0 .2 0c-.2.1 0 .1-.1.2h.1c-.1 0-.1.3.1.3 0 .1-.2.1-.2.2v.2c-.5.3.3.2.3.4s-.3 0-.3.2.2-.1.1.1c0 .2.1 0 .1-.1.2-.1.3.4.6.1.1-.1-.1-.2-.1-.2 0-.1-.2.1 0 .2l-.2-.1c.1 0 .1 0 .1-.1-.1-.1 0 .1.1 0h.1l.1.1c-.2-.2 0-.5 0-.7l.1-.1c.1.2.2.1.2.2h.1c-.1 0-.1.1-.1.2h.2-.2l.1.2-.1-.1v.3h.1c.1.2-.1.4-.2.5.1 0 .1 0 .1.1h-.2v.1h.2c.1.2-.1.1-.2.1v.2h-.1l.2.1c-.1.1 0 .1-.1.2s.1 0 .1 0v.2h.1v-.1c.1 0 .1.2.2.1l-.3.3.1.2h.1v.1c.1 0 .1-.1.1 0 0 0 0 .1-.1.1l.1.2c.1-.1.2-.2.4-.2h.1l-.2.1c.1.1.1.3 0 .4h.1v.2h.2c0-.1.1-.1.2-.1 0 0-.1.1-.2.1s-.2.3-.4.1v.1h.2l-.1.3.2.5h.1c0-.1.1-.1.1-.1 0 .1-.1.1-.1.1 0 .1 0 .1-.1.2v.1l.1.4.1-.1v.1h.1-.1l.2.6.7-.7.1-.1.2-.2s0-.1.1-.1h-.3l-.2.1-.1-.1.5-.2v-.3h.2l-.2.2h.1c.3 0 .1-.1.3-.2v.1l.2-.2c0-.2-.1-.4-.1-.5h.1l-.6-1.4v-.1zm.2-4.6c-.1.1.2.3-.1.2 0 0 .1 0 .1-.2l-.2.1c-.1-.2.2-.3.3-.5v-.2.2l.1-.1c.1-.1 0 .1-.1.1s.3.3-.1.4zm.6-.6s0-.1 0 0c0-.1.1-.1.1-.1l-.1.1zm-.3-1.4h.1c-.1.2.3.3.2.4-.1.1.1.2-.1.2 0 .1.1 0 .2.1s-.1.2-.2.1c.1-.2-.2-.2-.2-.3 0 .1-.2 0-.3.1h.2v.2c0 .1.1 0 .2 0-.1.2-.2 0-.3.1v-.2h-.2c.1 0 .1-.1.1-.2 0 0 0-.1-.1-.1.2 0 0 .2.2.1s.1-.1-.1-.2l.2-.1v.1h.2v-.2s.1.1.2 0c-.1 0-.1-.1-.3-.1 0 .1-.2.2-.2.3 0-.2.2-.2.2-.3 0-.2 0-.1 0 0zm-.4-.5l.1.2h-.1.2l.1-.1c0 .3-.4 0-.5.2h-.1c.4.1-.1-.3.3-.3zm-1.3 2.6c0-.1-.1-.1.1-.1-.1 0 0 .2-.1.1zm.7-2.1c0 .2 0 .5.1.7-.2-.1-.3-.2-.4-.3v.2l.2.3-.1.1s0-.1-.1-.2v-.3l-.2-.3s.1 0 .2.1l.1-.7c.1 0 .1.2.1.3l.1.1zm-.5 1.1zm0-1.4l.1-.2c0-.1.1-.1.1-.1l-.1.1c0 .1 0 .2-.2.3l.1-.1zm0 1.7c0 .1-.1.2.1.2 0 .1-.1 0-.2 0l.1-.2c.1 0 0 0 0 0 0-.1 0 .1 0 0zm-.5-1.7l.5-.1c-.3.1 0 0-.2.2-.2.1-.3.1-.3-.1zm-8.2 5.5c-.1 0 .1.2 0 .3-.1-.1-.1 0-.2.1.1-.1-.1-.3.2-.4zm-.2.4l.1.1.1-.1c0 .1-.1.2 0 .2h-.2c0 .2.1.2-.1.3 0-.1 0-.2-.1-.3.2 0 .1-.1.2-.1v-.1zm-.5.8c.1 0 .1.2-.1.2-.3 0 0 0 .1-.2zm-.4.8c.2-.1.1-.2.2-.3 0 .1.1 0 .1 0s-.3 0-.2.2c.2 0 0 .1.1.2 0-.1-.1.2-.2-.1zm.3.6v-.1s.1.2 0 .1zm.5-1.1c-.1.1-.2.1-.3.2v0c0-.1 0-.2-.1-.2s0 .1 0 .1-.1 0-.2-.1c.2 0 .2-.1.4 0-.2-.2.4-.2.1-.3v-.1c.1.1.3-.1.3.1l-.1.1s.1.2.2.2c-.1.2-.1.1-.3 0zm.5-.6v-.1.1zm0-3.7c.1-.3-.2 0-.3-.3h.1l.2-.2.2.1c-.1 0-.2 0-.2.1-.1.1.1.1.1 0 .2 0-.1.3.2.2l-.3.1zm.4 3.2zm.9-1.5l.1-.1v.1h.1c.1.1-.1-.1-.2 0zm.1-.4l-.1-.1.1-.1c0-.1 0-.1-.1-.1l.1-.2c.2.1.1.2.1.3.1.1.1.3-.1.2zm-.3 6.6c0 .1 0 .1 0 0 0 .1.1.1.1.2-.1.1-.1 0-.1-.2 0 0 0 .1 0 0zm-.2.8v-.2c.1 0 0 .2 0 .2zm-.1 0c-.1 0-.1-.1-.2-.1 0-.1.3 0 .2.1zm-.4-1.1h-.2v0-.1c.1 0 .2 0 .2.1zm.2-1.4c0-.1 0-.3.1-.4.2 0-.2.3.1.3.1.1-.1 0-.2.1zm.8-1.6c-.1.1.1.2.2.1h-.2c.1.1-.2.2 0 .2.1 0 0 0 0 .1s-.3 0-.2-.2c0 0 .1-.2.2-.2zm0 .5l-.2.2v-.2h.2zm-.5 1zm.2.1c0-.2 0-.1.2-.2l-.2.2zm.5-.1h-.1v.1h-.1c-.1-.1.1-.2.2-.2v.1zm-.1-.6s.1 0 0 0c.3.2-.1.2-.2.4 0-.1.2-.2.2-.4-.2-.1-.2.1-.2 0-.1 0 .1-.1.2 0l-.2-.2c0-.1.2.1.3 0 .1.2-.1.1-.1.2zm.1 1.1v-.1h-.1l.1-.1s.1.1 0 .2zm1 1.7c-.1 0-.1 0-.1-.1v-.1.1c.1.1.3 0 .1.1zm.1-1.6c0-.1 0-.2-.2-.1l.1-.2h.1c.1 0 .3.3 0 .3zm3.4-9.5c-.1.1.1.3.1.4l-.2-.2.1-.2zm-.6.6c.2 0 .1.2 0 .2.1 0 0-.2 0-.2zm0 1.2c-.2 0 0 .2-.1.3.1-.1.1 0 .1.1s-.2.1-.3.2h.2v-.1l.1.2c-.1 0-.2 0-.3-.1l-.2.2c-.2 0 0-.2 0-.3 0 0-.1 0-.1-.1.1 0 .1 0 .1.1s.3-.1.2-.2c-.1-.1-.1 0-.1 0l.1-.2h-.1c-.1 0-.1-.3-.1-.5.1 0 0-.4.1-.5.3 0-.1.2.2.2 0 0 .1-.1 0-.1l.1-.1c0 .1-.1.2 0 .2l.1-.1c0 .2.1.2 0 .4h.1c0 .2.1.3-.1.4zm-.5 1c.1-.1.3-.1 0 0zm.2-2.2c.1 0 .2-.1.2 0 .1.1.1.2 0 .2l-.1-.1c-.1.1 0 .2-.2.2l.2-.2-.1-.1zm0-.6v.2h.2c-.2 0 0 .2-.1.3h-.3l.1-.1c-.3.1 0-.2-.2-.3l.3-.1zm-.3.6h.2c-.1.1-.1.3-.2.3.1-.1-.1-.1-.1-.2l.1-.1zm-.4.8h.1c-.1.1-.2.2-.2.3 0 0-.1-.1.1-.3l-.2.1.1-.2c0 .1.1 0 .1.1zm-.3-.4h-.1c-.1 0-.2.1-.3 0-.1-.1.1-.1.2-.1v.1h.2l-.1-.1c.1 0 .2.2.1.3-.1-.1.2-.1 0-.2zm-.4-.5h.2v.3c-.1 0 0-.3-.2-.3zm0-.2c0-.2.2-.2.2-.3v.2l.2-.1v.2c0-.1.1.1.2.1-.1 0-.3.1-.3.1l-.2-.1c-.1 0-.2-.1-.2 0l.1-.1zm-.2.4l.1-.2c0 .1.1.3-.1.2zm-1.8 4.8c0-.1-.1-.3.1-.3l.1.1c-.2 0 .1.4-.2.2zm.9-.3l-.1-.1.1.1s0 .1 0 0c-.1.1.1.1 0 0zm.1-2.4l.2-.2v-.2c.1.2.2.5.1.8h-.1l.1-.1-.3-.3zm.1 1.8c0-.1 0-.1.1-.1.3.1 0 0-.1.1zm0 8.4l.2-.1v.1h-.2zm0-.2l.2-.2c.2.1 0 .2 0 .2h-.2zm0-3l.1-.2.2.1c.1.2 0 .1-.1.1h-.2zm.3-3.4l-.2-.1c0-.1.2 0 .2-.1v.2zm.1-2.9l-.2-.2h.2c0-.1.2-.3.1-.4 0-.2.1-.5 0-.8-.1-.3.2-.1.3-.4-.1-.2-.1-.4 0-.6-.1 0-.1 0-.1-.1h.1c0-.1 0-.1.1-.2-.2.3.3.1.2.4v-.1-.1.2c0 .1-.1.3-.1.4-.1 0 0 .2 0 .3h.2c0 .2-.2 0-.2.2h.2c-.1 0-.2 0-.1.2 0 .2.1-.1.2 0s-.2.1-.1.2.2-.2.3-.3c.1-.1.1-.1.1-.2.1-.1.1-.2.2-.3.1.1.2.1.3.2h-.6c.1.1 0 .1-.1.2l-.1-.1c0 .1-.1.1-.1.2 0 0 0 .1.1.1-.1.2-.2.2-.4.4.2.3-.5.5-.3.9l-.2-.1zm.7-.2v-.1c-.1 0-.2.1-.2 0h.2l.1-.2c.2.2.3.2.2.3h-.3zm-.4.6c-.1 0 0 .1-.1.1l-.1-.1h.2l-.2-.1s0-.3.2-.2c.2.1 0 .1.1.2l-.1.1zm-.2 6.9c.1 0 .1.1.1.2.1-.1 0-.1.1-.2h-.2zm.2 2.8l-.1.1v-.1c0-.1.1-.1.2-.1s.1.1.1.2l-.2-.1zm0-.5c-.2-.2.1-.2.2-.3 0-.1 0-.1-.1-.2.1.1.1.2.1.2s.1.3 0 .3h-.2zm.1-6.6v-.2c.1 0 .1 0 .1.1v.1h-.1zm.2 4.6h.1c.1 0 .1 0 0 0h-.1zm.1-.1c0-.2-.2-.2-.1-.4.1 0 0 0 0 .1.4 0 .2.3.2.4l-.1-.1zm.4-1.9c-.1.1-.2.3-.4.4.1 0 0 .1 0 .2l.1.1c-.1 0-.1 0-.1-.1l-.2-.2-.1.1c0-.2.1-.4.3-.5.2.1.5-.2.5 0h-.1zm-.4-.4l.1.2-.1-.2zm.2-.3c-.1.2-.3 0-.3.2l-.1-.4c.2 0 .4.1.6.2h-.2zm.1-3.6l-.1-.1h.1v.1zm.6-.1v.1c-.2 0-.3.3-.5 0 .1 0 .1-.2.2 0 .1-.1-.1-.1-.2-.2.2-.1.3 0 .4-.1l.1.1v.1zm.4-1.5c-.2.3-.3.1-.6.4h.1c-.3.1.2.5-.2.5l.2.1h-.1c-.1.5-.2.2-.2.2h-.1v-.2h-.1c0-.2.3 0 .3-.2h-.2c.1 0 .1-.1.1-.1l-.1-.1h.2c0-.1-.1-.1-.2-.1s.2-.1.1-.1c0-.1-.1 0-.1 0-.3.1.2.4-.2.5-.1 0 .1-.1.1-.2h.1c.1 0 0-.1 0-.1l-.1.1c0-.1-.2-.1-.2-.2h.1c0-.1 0-.1-.1-.1s.2-.1.3-.2c-.1 0-.1.1 0 .2.2 0 .3-.1.4-.2h-.4c.1-.2-.2-.5.1-.7-.1 0-.3 0-.3-.1s.1 0 .2 0c.3.1 0 .5.3.6.1.1-.2.1-.2.2.1-.1.1.1.2.1s.3 0 .3-.3h-.1c.2-.2.2-.1.4 0 0-.2 0-.2.2-.2-.1-.1 0-.3-.1-.3h.2c-.3.2.4.4 0 .6 0 0 .1.1.1 0s-.2.1-.2 0l-.2-.1zm.3.2c.1 0 .2-.1.2-.2h.1c.1.2 0 .2-.1.2h-.2zm.4-1.5s-.1.3-.2.4h.1l-.1.2c0-.1-.1-.1-.2 0v-.1c.2-.2.1-.6.4-.7v.2zm-.1-.2l.1-.3.1.1-.2.2zm.7 1.9c.1 0 .1 0 .1.1v-.1h-.1zm.2.8v-.3c-.1.1-.1.1-.2 0 .3-.3.2.2.4.2l-.2.1zm.4.1c0-.1 0-.2.1-.2l-.1.2zm-.1-.3c.1 0 0-.1 0-.1l.2.1h-.2zm.8.1l-.1.1.1-.1zm-.5.4l.1-.2c.2-.1.1.1.2.1 0 .1-.2.1-.3.1zm.2 1.1c0 .1.1 0 .1 0l-.1.2c-.1 0 0-.1-.2 0l.2-.2c-.1 0-.2 0-.2.1l.2-.1zm0 .4h.1-.1zm-.2.3c.2 0 .1.1.2.2.1 0-.1-.1-.1-.1l-.1-.1zm.1 0c.2-.1-.1 0-.1-.1s.1 0 .2 0 .1.1 0 .1h-.1zm0 .5h.2-.2zm.1.5c.1 0 0-.2.1-.2 0 0 0 .3-.1.2zm.3-.1c-.1-.1.1-.2-.1-.2s0 0 0 .1-.1 0-.1-.1c-.1-.1.3-.1.2 0 .2 0 0 .1 0 .2zm.5 1.6v-.1c-.1-.2-.3-.1-.4 0 0-.2.1-.2.2-.3 0 .1 0 .2.1.2s0-.2.2-.3l.2.2h.1c-.2 0-.2.2-.4.3zm.3 1.1v-.1h.1l-.1.1zm.3-1.8l.1-.2-.1.2zm.7.5l.2-.1-.2.1zm0-.3l.1.2h-.2l.1-.2z"/><path class="st0" d="M273.3 119.8h-.1c-.1.1.1 0 .1 0zM273.4 119.8zM260.3 92.3l.5.3h.1c0-.1-.1-.1-.1-.2s.1-.2.1-.2c-.2 0-.4.1-.6.1zM260.1 90.9c-.3.2-.6.5-.8.8l.2.1c.1 0 .3 0 .2-.2.1 0 .2-.1.1.1 0 0 .2 0 .1-.1h.2v-.7zm-.4.7l.4-.3-.4.3zM258.5 91.3c.1-.1.2-.2.2-.3-.1-.2-.5-.1-.7 0l.5.3zM257 88.1h.2-.2zM257.3 90.5l.4.3c.6-.2 1.1-.4 1.7-.6h-.6c-.1 0-.2 0-.3-.1-.4.2-.7.3-1.1.5-.1-.2.4-.6.5-.6-.2-.3-.8.4-1.1 0v.2c-.1 0-.2-.3-.3-.2.1-.2.3-.5.4-.5l-.6.2c.1 0 .4-.4.5-.4.1-.1-.3.1-.4.2l-.2.5.9.5h.2zM256.9 88.2zM258.7 88.7l-.1.2H258.9l-.2-.2z"/><path class="st0" d="M257.5 88.5c.3-.3.5 0 .7 0-.2.4.3.1.1.5h.2c.1-.2.2-.3.2-.2l.1-.2c.1-.2 0 .1 0 .3.3 0 .6.3.6.6.2 0 .4.1.3.4 0-.1 0-.1-.1-.1.2.2.2.6.5.6l.1-.2c.1 0 .3.1.4.2h.2c-.1 0-.1-.1-.1-.1.2-.1.6.1.9.1v.1c.1 0 .3.1.3-.1l.1.2c-.1 0-.2 0-.1.1h-.4c.1.1.2.3.1.4.1 0 .1 0 .2.1.6-1.2 1.8-1.9 3.1-2.1v-.8l-7.4-.3-.1.2c0 .1.1.2.1.3zM255.7 94.4c0-.1 0-.2.1-.2 0-.4 0-.7.1-1.1.6-.5 1.4-.9 2.1-1.1l.1-.1h.1l-.6-.4h-.1s-.1 0-.1.1l-.3-.4-.1-.2c-.6-.3-1.4.7-2.5.9-1.2.2-.2 1 1.2 2.5zm1.9-2.9c0 .1-.2.2-.1.3.1.1-.2-.3-.3-.1 0-.4.3 0 .4-.2zm-1.8 2.3c.1.1-.1.2.1.3-.1 0-.2-.1-.3-.1.1 0 .1-.1.2-.2zm-.6-.2l-.1-.2s.2.1.1.2zM266.1 95.5zM263.5 93.3c0-.1 0-.1 0 0zM266 95.5c.1 0 0-.1 0 0zM266.1 95.4z"/><path class="st0" d="M266.1 95.3v.2l1.1-2.7-3.4-2.8-1.4 2.1c.1.1.1.2.1.3-.1.1-.1-.1-.1-.3l-.1.2c.2.3.5.3.7.5l.4.1c-.2.1.1 0 .2.1 0 .1.2.2.3.3l.2.2c-.3-.1-.2.2-.3.4h.2c0 .1-.2.1-.1.2s.4.2.6 0v-.2h.1c.1 0 .1 0 0 0h.2c-.1.4.2.3 0 .7.2-.5.4.3.5-.1-.1.4.1.1-.1.4-.1-.2-.5-.1-.7-.1v.2c-.3.2-.2-.4-.3-.3.1 0 .2.2.1.2l.2-.3c-.1-.2-.4-.2-.6-.2.1.2-.3 0-.3.2h.1c0 .1-.2.1-.3.1-.2-.4-.8-.8-.8-1.1 0 .1.2.2.3.1l-.1-.2c.1.1 0 .4.3.5.1-.2.4-.3.4-.6-.1-.5-.6.1-.9-.3-.1 0 .3-.2 0-.3-.2-.1-.4-.1-.6 0l-.1.2h.2c0 .1-.2-.1-.1.1h-.1l.6.7 3.1 3.6.8-2.1h-.4c.1.2-.3.1-.1.3-.2 0-.2.2-.4 0 .1-.2.3-.2.4-.3-.1-.1-.2-.1-.2-.2h-.1l-.2-.2c-.1.4-.5.9-.7.9 0-.3-.2-.3-.4-.1 0-.1.1-.1.1-.1h-.2c.2-.3.6-.2.6-.4 0 .2-.1.3.1.3.2.1.1-.4.1-.5.2 0 .3 0 .3-.1 0 0 .1-.1.3-.1v.4l.3.1c.2.1.2 0 .2 0zm-2-1.7c0-.1-.2.2-.2.1-.3-.1.4-.3.2-.1zm.2.1s0 .1 0 0zm.5.6s0-.1-.1-.2l.1.2c.1-.1 0-.1 0 0zm-2.9-.9c-.1 0-.1-.1 0-.2l.2.1c0 .1-.1.1-.2.1zm1.7 1.5l-.1-.2c.1-.1.1 0 .1.2h0c.1-.1.1-.1 0 0zm.2.2l.1.1-.1-.1zm.1-.4zm.2.7l-.1-.1.2-.1-.1.2zm1 .7l-.1.1.1-.1zm-.6-1.3c.2 0 .3 0 .1.2-.1 0-.2 0-.1-.2zm.2.3s-.1 0 0 0c0 0 .1 0 0 0zm.5-.4v-.1h.2l-.2.1zm.3.2h-.2l.3-.1-.1.1z"/></svg>